<svg xmlns="http://www.w3.org/2000/svg" version="1.1" xmlns:xlink="http://www.w3.org/1999/xlink" width="512" height="512" x="0" y="0" viewBox="0 0 511.996 511.996" style="enable-background:new 0 0 512 512" xml:space="preserve"><g><path d="M308.212 442.214h19.059c8.599 0 15.57 6.971 15.57 15.57v0c0 8.599-6.971 15.57-15.57 15.57h-86.374M249.193 442.214h26.333M309.93 473.355v16.103c0 8.305-6.733 15.038-15.038 15.038H188.455" style="stroke-width:15;stroke-linecap:round;stroke-linejoin:round;stroke-miterlimit:10;" fill="none" stroke="#cc0000" stroke-width="15" stroke-linecap="round" stroke-linejoin="round" stroke-miterlimit="10" data-original="#000000" opacity="1"></path><path d="M17.758 194.124c5.455-19.933 20.623-35.852 40.101-42.353a89.246 89.246 0 0 1-.489-9.341c0-48.699 39.478-88.177 88.177-88.177.525 0 1.049.005 1.571.014 2.52-10.966 8.116-20.669 15.44-28.704 8.102-8.888 18.416-13.711 27.65-16.315 2.172-.613 5.276-1.103 8.929-1.494 25.934-2.777 48.519 17.654 48.519 43.737V446.16c0 32.219-26.119 58.337-58.337 58.337h0c-26.607 0-49.292-16.785-58.046-40.344a73.824 73.824 0 0 1-16.447 1.621c-39.255-.52-71.501-32.368-72.48-71.615-.451-18.098 5.642-34.761 16.08-47.792-23.234-1.06-41.745-20.231-41.745-43.726 0-18.168 11.068-33.75 26.829-40.372-12.441-8.179-21.758-20.723-25.771-35.453" style="stroke-width:15;stroke-linecap:round;stroke-linejoin:round;stroke-miterlimit:10;" fill="none" stroke="#cc0000" stroke-width="15" stroke-linecap="round" stroke-linejoin="round" stroke-miterlimit="10" data-original="#000000" opacity="1"></path><path d="M158.386 452.207c-12.011 8.546-26.701 13.572-42.565 13.572-40.592 0-73.498-32.906-73.498-73.498 0-25.37 12.854-47.738 32.405-60.946M35.98 338.937c-11.644-7.866-19.299-21.188-19.299-36.297 0-24.175 19.598-43.773 43.773-43.773M145.546 54.252c12.065 0 23.565 2.423 34.038 6.81M64.18 176.468c-4.387-10.473-6.81-21.973-6.81-34.039M152.436 186.643c3.782-18.414 21.776-30.275 40.189-26.492M149.822 382.97c-9.962-22.504.204-48.823 22.708-58.786" style="stroke-width:15;stroke-linecap:round;stroke-linejoin:round;stroke-miterlimit:10;" fill="none" stroke="#cc0000" stroke-width="15" stroke-linecap="round" stroke-linejoin="round" stroke-miterlimit="10" data-original="#000000" opacity="1"></path><path d="M157.513 334.233c-10.017-3.184-15.557-13.886-12.373-23.903M338.959 71.727c-26.663-16.075-57.907-25.323-91.311-25.323M322.208 411.073v-22.469a6.983 6.983 0 0 1 3.871-6.266c58.467-28.926 98.672-89.184 98.672-158.832 0-52.331-22.697-99.36-58.784-131.782M247.648 411.073h79.623c8.599 0 15.57 6.971 15.57 15.57v0c0 8.599-6.971 15.57-15.57 15.57M457.53 226.746h37.785M441.96 133.323l38.968-38.885M480.928 343.566l-38.968-23.397" style="stroke-width:15;stroke-linecap:round;stroke-linejoin:round;stroke-miterlimit:10;" fill="none" stroke="#cc0000" stroke-width="15" stroke-linecap="round" stroke-linejoin="round" stroke-miterlimit="10" data-original="#000000" opacity="1"></path><path d="M247.665 326.758c4.305.519 8.687.786 13.132.786s8.827-.267 13.132-.786l9.561-26.886a83.509 83.509 0 0 0 18.437-7.643L327.7 304.48a109.228 109.228 0 0 0 18.575-18.575l-12.251-25.772a83.461 83.461 0 0 0 7.643-18.437l26.886-9.561c.519-4.305.786-8.687.786-13.132s-.267-8.827-.786-13.132l-26.886-9.561a83.509 83.509 0 0 0-7.643-18.437l12.251-25.772a109.192 109.192 0 0 0-18.575-18.575l-25.773 12.251a83.509 83.509 0 0 0-18.437-7.643l-9.561-26.886a109.678 109.678 0 0 0-13.132-.786c-4.445 0-8.827.267-13.132.786" style="stroke-width:15;stroke-linecap:round;stroke-linejoin:round;stroke-miterlimit:10;" fill="none" stroke="#cc0000" stroke-width="15" stroke-linecap="round" stroke-linejoin="round" stroke-miterlimit="10" data-original="#000000" opacity="1"></path><path d="M247.665 270.03a52.825 52.825 0 0 0 13.33 1.7c29.12 0 52.727-23.607 52.727-52.727 0-29.12-23.607-52.727-52.727-52.727-4.605 0-9.072.59-13.33 1.7" style="stroke-width:15;stroke-linecap:round;stroke-linejoin:round;stroke-miterlimit:10;" fill="none" stroke="#cc0000" stroke-width="15" stroke-linecap="round" stroke-linejoin="round" stroke-miterlimit="10" data-original="#000000" opacity="1"></path></g></svg>