<svg xmlns="http://www.w3.org/2000/svg" version="1.1" xmlns:xlink="http://www.w3.org/1999/xlink" width="512" height="512" x="0" y="0" viewBox="0 0 64 64" style="enable-background:new 0 0 512 512" xml:space="preserve" class=""><g><g data-name="Layer 17"><path d="M19 36a1 1 0 0 0 1-1v-4.527a.945.945 0 0 1 .385-.786 13.079 13.079 0 0 0 3.165-3.1 1 1 0 1 0-1.621-1.17 11.116 11.116 0 0 1-2.682 2.627A2.943 2.943 0 0 0 18 30.473v2.659l-3.974-2.65a3.038 3.038 0 0 0-1.547-.494A11.034 11.034 0 0 1 2.008 18.57 11.173 11.173 0 0 1 12.57 8.008a10.9 10.9 0 0 1 4.1.618 1 1 0 0 0 .666-1.886 13 13 0 1 0-4.947 25.246 1.046 1.046 0 0 1 .531.16l5.528 3.686A1 1 0 0 0 19 36ZM51.506 6.009a13 13 0 0 0-4.839.731 1 1 0 0 0 .666 1.886 11.015 11.015 0 0 1 4.1-.618A11.173 11.173 0 0 1 61.992 18.57a11.034 11.034 0 0 1-10.47 11.418 3.038 3.038 0 0 0-1.548.494L46 33.132v-2.659a2.945 2.945 0 0 0-1.246-2.431 11.1 11.1 0 0 1-2.683-2.627 1 1 0 1 0-1.621 1.17 13.065 13.065 0 0 0 3.166 3.1.946.946 0 0 1 .384.786V35a1 1 0 0 0 1.555.832l5.528-3.686a1.046 1.046 0 0 1 .532-.16 13 13 0 0 0-.109-25.977ZM32.828 6A2.174 2.174 0 0 1 35 8.171a1 1 0 0 1-.293.708L33.636 9.95A8.94 8.94 0 0 0 31 16.313V17a1 1 0 0 0 2 0v-.687a6.958 6.958 0 0 1 2.05-4.949l1.071-1.071A2.983 2.983 0 0 0 37 8.171 4.176 4.176 0 0 0 32.828 4h-1.656A4.176 4.176 0 0 0 27 8.171V9a1 1 0 0 0 2 0v-.829A2.174 2.174 0 0 1 31.172 6Z" fill="#cc0000" opacity="1" data-original="#000000" class=""></path><circle cx="32" cy="21" r="1" fill="#cc0000" opacity="1" data-original="#000000" class=""></circle><path d="M14 22.313a6.958 6.958 0 0 1 2.05-4.949l1.071-1.071A2.983 2.983 0 0 0 18 14.171 4.176 4.176 0 0 0 13.828 10h-1.656A4.176 4.176 0 0 0 8 14.171V15a1 1 0 0 0 2 0v-.829A2.174 2.174 0 0 1 12.172 12h1.656A2.174 2.174 0 0 1 16 14.171a1 1 0 0 1-.293.708l-1.071 1.071A8.94 8.94 0 0 0 12 22.313V23a1 1 0 0 0 2 0Z" fill="#cc0000" opacity="1" data-original="#000000" class=""></path><circle cx="13" cy="27" r="1" fill="#cc0000" opacity="1" data-original="#000000" class=""></circle><path d="M47 16a1 1 0 0 0 1-1v-.829A2.174 2.174 0 0 1 50.172 12h1.656A2.174 2.174 0 0 1 54 14.171a1 1 0 0 1-.293.708l-1.071 1.071A8.94 8.94 0 0 0 50 22.313V23a1 1 0 0 0 2 0v-.687a6.958 6.958 0 0 1 2.05-4.949l1.071-1.071A2.983 2.983 0 0 0 56 14.171 4.176 4.176 0 0 0 51.828 10h-1.656A4.176 4.176 0 0 0 46 14.171V15a1 1 0 0 0 1 1Z" fill="#cc0000" opacity="1" data-original="#000000" class=""></path><circle cx="51" cy="27" r="1" fill="#cc0000" opacity="1" data-original="#000000" class=""></circle><circle cx="29" cy="42" r="1" fill="#cc0000" opacity="1" data-original="#000000" class=""></circle><circle cx="35" cy="42" r="1" fill="#cc0000" opacity="1" data-original="#000000" class=""></circle><path d="M38 50h-.726A7.976 7.976 0 0 0 40 44a3 3 0 0 0 0-6v-5a3 3 0 0 0-2.129-2.871A3 3 0 0 0 35 28h-1.2l1.322-2.115a1.09 1.09 0 0 1 .622-.445 12.994 12.994 0 0 0 5.27-21.808A12.876 12.876 0 0 0 31.488.01 13.162 13.162 0 0 0 19 12.746a13.039 13.039 0 0 0 9.254 12.694 1.088 1.088 0 0 1 .618.442L30.2 28H29a7.008 7.008 0 0 0-7 7 4.952 4.952 0 0 0 1.141 3.14A2.992 2.992 0 0 0 24 44a7.976 7.976 0 0 0 2.726 6H26a9.01 9.01 0 0 0-9 9v4a1 1 0 0 0 1 1h28a1 1 0 0 0 1-1v-4a9.01 9.01 0 0 0-9-9Zm-9.17-26.475A11.031 11.031 0 0 1 21 12.784 11.135 11.135 0 0 1 31.564 2.008C31.712 2 31.857 2 32 2a11 11 0 0 1 11 11 10.927 10.927 0 0 1-7.828 10.525 3.086 3.086 0 0 0-1.741 1.3L32 27.113l-1.432-2.29a3.076 3.076 0 0 0-1.738-1.298ZM41 41a1 1 0 0 1-1 1v-2a1 1 0 0 1 1 1ZM29 30h6a1 1 0 0 1 1 1 1 1 0 0 0 1 1 1 1 0 0 1 1 1v4.731A2 2 0 0 1 37 36a1 1 0 0 0-1.707-.707l-.657.657A6.956 6.956 0 0 1 29.687 38H27a3 3 0 0 1-3-3 5.006 5.006 0 0 1 5-5Zm-6 11a1 1 0 0 1 1-1v2a1 1 0 0 1-1-1Zm3 3v-4.1a5 5 0 0 0 1 .1h2.687a8.935 8.935 0 0 0 5.79-2.108A4.015 4.015 0 0 0 38 39.868V44a6 6 0 0 1-12 0Zm19 18h-2v-3a1 1 0 0 0-2 0v3H23v-3a1 1 0 0 0-2 0v3h-2v-3a7.009 7.009 0 0 1 7-7h12a7.009 7.009 0 0 1 7 7Z" fill="#cc0000" opacity="1" data-original="#000000" class=""></path></g></g></svg>