<svg xmlns="http://www.w3.org/2000/svg" version="1.1" xmlns:xlink="http://www.w3.org/1999/xlink" width="512" height="512" x="0" y="0" viewBox="0 0 64 64" style="enable-background:new 0 0 512 512" xml:space="preserve" class=""><g><path d="M51.932 21.547a.974.974 0 0 0-.476-.137H48.62a6.788 6.788 0 0 0 1.993-4.81 6.817 6.817 0 0 0-6.81-6.808 6.817 6.817 0 0 0-6.808 6.809c0 1.875.763 3.576 1.994 4.81H25.012a6.788 6.788 0 0 0 1.994-4.81 6.817 6.817 0 0 0-6.809-6.809 6.817 6.817 0 0 0-6.81 6.809c0 1.875.763 3.576 1.994 4.81H13.39a6.463 6.463 0 0 0-6.455 6.455v8.975a3.816 3.816 0 0 0 3.811 3.812c.66 0 1.271-.183 1.813-.479v13.034a1 1 0 1 0 2 0V30.063a1 1 0 1 0-2 0V36.841c0 .999-.814 1.812-1.813 1.812s-1.811-.813-1.811-1.812v-8.975a4.461 4.461 0 0 1 4.455-4.456h18.946a6.428 6.428 0 0 0-1.796 4.456v.782h-.867a3.84 3.84 0 0 0-3.836 3.836v20.724a1 1 0 1 0 2 0V32.484c0-1.012.823-1.836 1.836-1.836h.867v6.193a3.816 3.816 0 0 0 3.813 3.812c.659 0 1.27-.183 1.812-.479v13.034a1 1 0 1 0 2 0V30.063a1 1 0 1 0-2 0V36.841c0 .999-.813 1.812-1.812 1.812s-1.813-.813-1.813-1.812v-8.975a4.461 4.461 0 0 1 4.456-4.456h13.616a4.461 4.461 0 0 1 4.455 4.456v8.975c0 .999-.812 1.812-1.811 1.812s-1.813-.813-1.813-1.812v-6.778a1 1 0 1 0-2 0v23.145a1 1 0 1 0 2 0V40.174c.542.296 1.153.48 1.813.48a3.816 3.816 0 0 0 3.811-3.813v-8.975c0-3.107-2.206-5.707-5.134-6.319zm-31.735-.137a4.815 4.815 0 0 1-4.81-4.81 4.814 4.814 0 0 1 4.81-4.808 4.814 4.814 0 0 1 4.809 4.809 4.814 4.814 0 0 1-4.809 4.81zm23.606 0a4.814 4.814 0 0 1-4.809-4.81 4.814 4.814 0 0 1 4.809-4.808 4.814 4.814 0 0 1 4.81 4.809 4.815 4.815 0 0 1-4.81 4.81z" fill="#cc0000" opacity="1" data-original="#000000"></path><path d="M20.197 39.25a1 1 0 0 0-1 1v12.958a1 1 0 1 0 2 0V40.25a1 1 0 0 0-1-1zM43.803 39.25a1 1 0 0 0-1 1v12.958a1 1 0 1 0 2 0V40.25a1 1 0 0 0-1-1z" fill="#cc0000" opacity="1" data-original="#000000"></path></g></svg>