<?xml version="1.0" encoding="UTF-8"?>
<svg xmlns="http://www.w3.org/2000/svg" width="50" height="51" viewBox="0 0 50 51" fill="none">
  <g clip-path="url(#clip0_629_35230)">
    <path d="M39.8438 13.3203C39.8438 9.44297 36.6898 6.28906 32.8125 6.28906C28.9352 6.28906 25.7812 9.44297 25.7812 13.3203C25.7812 17.1977 28.9352 20.3516 32.8125 20.3516C36.6898 20.3516 39.8438 17.1977 39.8438 13.3203ZM27.3438 13.3203C27.3438 10.3055 29.7977 7.85156 32.8125 7.85156C35.8273 7.85156 38.2812 10.3055 38.2812 13.3203C38.2812 16.3352 35.8273 18.7891 32.8125 18.7891C29.7977 18.7891 27.3438 16.3352 27.3438 13.3203Z" fill="#CC0000"></path>
    <path d="M49.2188 26.8195L43.8766 25.0391H39.7C39.3766 24.132 38.5172 23.4766 37.5 23.4766V22.7836L39.0086 23.6969L43.1898 19.5156L42.0242 17.5898C42.1445 17.3313 42.2531 17.0719 42.3492 16.8125L44.5312 16.2766V10.3641L42.3484 9.82734C42.2523 9.56797 42.1437 9.30859 42.0234 9.05L43.1891 7.12422L39.0078 2.94297L37.0828 4.10938C36.8242 3.98906 36.5648 3.88047 36.3055 3.78437L35.7687 1.60156H29.8562L29.3195 3.78437C29.0602 3.88047 28.8008 3.98906 28.5422 4.10938L26.6164 2.94375L22.4352 7.125L23.6008 9.05078C23.4805 9.30937 23.3719 9.56875 23.2758 9.82812L21.0938 10.3641V12.5391H14.2766C15.5789 11.393 16.4062 9.71875 16.4062 7.85156C16.4062 4.40547 13.6023 1.60156 10.1562 1.60156C6.71016 1.60156 3.90625 4.40547 3.90625 7.85156C3.90625 9.81875 4.82188 11.5742 6.24766 12.7211C3.12188 13.4352 0.78125 16.232 0.78125 19.5703V28.1641C0.78125 30.318 2.53359 32.0703 4.6875 32.0703V46.9141C4.6875 48.6375 6.08906 50.0391 7.8125 50.0391C8.75078 50.0391 9.58281 49.6156 10.1562 48.9594C10.7297 49.6156 11.5617 50.0391 12.5 50.0391C14.2234 50.0391 15.625 48.6375 15.625 46.9141V18.0078H23.3492L22.4359 19.5164L26.6172 23.6977L28.125 22.7836V23.4766C27.1078 23.4766 26.2484 24.132 25.925 25.0391H21.7484L16.4062 26.8195V40.9664L21.0938 39.4039V46.1328C21.0938 48.2867 22.8461 50.0391 25 50.0391H40.625C42.7789 50.0391 44.5312 48.2867 44.5312 46.1328V39.4039L49.2188 40.9664V26.8195ZM22.6562 26.6016H25.925C26.0289 26.8937 26.1867 27.157 26.3906 27.3828C26.0156 27.7984 25.7812 28.343 25.7812 28.9453C25.7812 30.2375 26.8328 31.2891 28.125 31.2891C28.125 33.8742 30.2273 35.9766 32.8125 35.9766C35.3977 35.9766 37.5 33.8742 37.5 31.2891C38.7922 31.2891 39.8438 30.2375 39.8438 28.9453C39.8438 28.343 39.6086 27.7984 39.2344 27.3828C39.4375 27.157 39.5961 26.8937 39.7 26.6016H42.9688V37.5391H22.6562V26.6016ZM38.2812 28.9453C38.2812 29.3766 37.9313 29.7266 37.5 29.7266H35.9375H28.125C27.6938 29.7266 27.3438 29.3766 27.3438 28.9453C27.3438 28.5141 27.6938 28.1641 28.125 28.1641H37.5C37.9313 28.1641 38.2812 28.5141 38.2812 28.9453ZM35.9375 31.2891C35.9375 33.0125 34.5359 34.4141 32.8125 34.4141C31.0891 34.4141 29.6875 33.0125 29.6875 31.2891H35.9375ZM7.8125 14.1016H8.425L8.19766 17.2883C7.84141 16.2594 7.57891 15.1984 7.41406 14.1219C7.54609 14.1125 7.67812 14.1016 7.8125 14.1016ZM9.99063 14.1016H10.3219L10.7641 20.293C10.5719 20.6297 10.3703 20.9617 10.1562 21.2852C9.94219 20.9594 9.74141 20.625 9.54922 20.2852L9.99063 14.1016ZM12.118 17.3234L11.8875 14.1016H12.925C12.7555 15.1977 12.4859 16.2773 12.118 17.3234ZM5.46875 7.85156C5.46875 5.26641 7.57109 3.16406 10.1562 3.16406C12.7414 3.16406 14.8438 5.26641 14.8438 7.85156C14.8438 10.4367 12.7414 12.5391 10.1562 12.5391C7.57109 12.5391 5.46875 10.4367 5.46875 7.85156ZM14.0625 16.4453V46.9141C14.0625 47.7758 13.3617 48.4766 12.5 48.4766C11.6383 48.4766 10.9375 47.7758 10.9375 46.9141V32.8516V32.2594C10.9375 31.8484 11.1047 31.4453 11.3953 31.1547L12.2711 30.2789L11.1664 29.1742L10.2906 30.05C9.70859 30.6313 9.375 31.4367 9.375 32.2594V32.8516V46.9141C9.375 47.7758 8.67422 48.4766 7.8125 48.4766C6.95078 48.4766 6.25 47.7758 6.25 46.9141V17.2266H4.6875V30.5078C3.39531 30.5078 2.34375 29.4562 2.34375 28.1641V19.5703C2.34375 17.2344 3.81875 15.2414 5.88438 14.4594C6.325 17.2352 7.36328 19.9133 8.92344 22.2539L10.1562 24.1047L11.4195 22.2078C13.0367 19.782 14.093 16.9883 14.5031 14.1016H21.0938V16.2766L21.7797 16.4453H14.0625ZM28.525 20.7156L26.8547 21.7258L24.407 19.2781L25.3875 17.6578L25.1852 17.2688C24.9523 16.8211 24.7625 16.3672 24.6211 15.9211L24.4891 15.5023L22.6562 15.0516V11.5891L24.4898 11.1383L24.6219 10.7195C24.7633 10.2742 24.9531 9.82031 25.1859 9.37188L25.3883 8.98281L24.4078 7.3625L26.8555 4.91484L28.4758 5.89531L28.8648 5.69297C29.3125 5.46016 29.7664 5.27031 30.2125 5.12891L30.6313 4.99688L31.0813 3.16406H34.5438L34.9945 4.99766L35.4133 5.12969C35.8586 5.27109 36.3125 5.46094 36.7609 5.69375L37.15 5.89609L38.7703 4.91563L41.218 7.36328L40.2375 8.98359L40.4398 9.37266C40.6727 9.82031 40.8625 10.2742 41.0039 10.7203L41.1359 11.1391L42.9688 11.5891V15.0516L41.1352 15.5023L41.0031 15.9211C40.8617 16.3664 40.6719 16.8203 40.4391 17.2688L40.2367 17.6578L41.2172 19.2781L38.7695 21.7258L37.1336 20.7359L35.9375 21.4109V23.4766H29.6875V21.3766L28.525 20.7156ZM28.125 25.0391H35.9375H37.5C37.9313 25.0391 38.2812 25.3891 38.2812 25.8203C38.2812 26.2516 37.9313 26.6016 37.5 26.6016H28.125C27.6938 26.6016 27.3438 26.2516 27.3438 25.8203C27.3438 25.3891 27.6938 25.0391 28.125 25.0391ZM17.9688 38.7984V27.9461L21.0938 26.9047V37.7578L17.9688 38.7984ZM40.625 48.4766H25C23.7078 48.4766 22.6562 47.425 22.6562 46.1328V39.1016H42.9688V46.1328C42.9688 47.425 41.9172 48.4766 40.625 48.4766ZM47.6562 38.7984L44.5312 37.757V26.9039L47.6562 27.9453V38.7984Z" fill="#CC0000"></path>
    <path d="M25.7812 43.7891H24.2188V45.3516C24.2188 46.2133 24.9195 46.9141 25.7812 46.9141H32.8125V45.3516H25.7812V43.7891Z" fill="#CC0000"></path>
    <path d="M34.375 45.3516H35.9375V46.9141H34.375V45.3516Z" fill="#CC0000"></path>
    <path d="M39.8438 40.6641H41.4062V42.2266H39.8438V40.6641Z" fill="#CC0000"></path>
    <path d="M39.8438 43.7891H41.4062V45.3516H39.8438V43.7891Z" fill="#CC0000"></path>
    <path d="M35.1562 13.3203H36.7188C36.7188 11.1664 34.9664 9.41406 32.8125 9.41406V10.9766C34.1047 10.9766 35.1562 12.0281 35.1562 13.3203Z" fill="#CC0000"></path>
  </g>
  <defs>
    <clipPath id="clip0_629_35230">
      <rect width="50" height="50" fill="white" transform="translate(0 0.820312)"></rect>
    </clipPath>
  </defs>
</svg>
