<svg xmlns="http://www.w3.org/2000/svg" version="1.1" xmlns:xlink="http://www.w3.org/1999/xlink" width="512" height="512" x="0" y="0" viewBox="0 0 66 66" style="enable-background:new 0 0 512 512" xml:space="preserve" class=""><g><path d="M33 24.6c-2.7 0-4.9-2.2-4.9-4.9s2.2-4.9 4.9-4.9 4.9 2.2 4.9 4.9-2.2 4.9-4.9 4.9zm0-7.8c-1.6 0-2.9 1.3-2.9 2.9 0 1.7 1.2 2.9 2.9 2.9 1.6 0 2.9-1.3 2.9-2.9s-1.3-2.9-2.9-2.9zM36.6 60.5c-.7 0-1.4-.3-1.9-.7-.6-.5-.9-1.3-.9-2.1V44.2c0-.2-.3-.5-.5-.5s-.5.3-.5.5v13.3c0 1.7-1.3 3-3 3s-3-1.3-3-3V41.3c-.5.3-1.1.5-1.7.4-.7-.1-1.3-.4-1.8-.9l-4.8-5.6c-.7-.8-1-1.8-.9-2.9.2-1.1.8-2 1.7-2.5l6.4-3.4c1.2-.7 2.6-1 4-1h6.5c1.4 0 2.8.4 4 1l6.4 3.4c.9.6 1.5 1.5 1.7 2.5.2 1.1-.1 2.1-.8 2.9l-4.8 5.6c-.7.7-1.3 1-2.1 1-.5 0-1-.2-1.4-.5v1.5l.2 14.9c0 1.5-1.1 2.8-2.6 2.9 0-.1-.1-.1-.2-.1zm-3.3-18.8c1.4 0 2.5 1.1 2.5 2.5v13.5c0 .3.1.5.2.6.2.2.4.2.7.2.5 0 .8-.5.8-.9l-.2-14.9V30.4c0-.3.2-.7.5-.8.3-.2.7-.2 1 0l5.3 2.6c.3.1.5.4.5.7.1.3 0 .6-.2.9l-4.2 4.9c-.2 0-.2.1-.2.3s.1.4.3.5l.4.2c.1 0 .3 0 .6-.3l4.7-5.5c.3-.3.4-.8.3-1.3s-.3-.9-.7-1.1l-6.3-3.4c-.9-.5-2-.8-3-.8h-6.5c-1 0-2.1.3-3 .8l-6.4 3.4c-.4.2-.6.6-.7 1.1s.1.9.4 1.3l4.8 5.6c.1.1.3.2.4.2s.3 0 .4-.2c.2-.1.3-.3.3-.5s0-.3-.1-.4l-4.2-5c-.2-.2-.3-.5-.2-.8s.3-.6.5-.7l5.3-2.6c.3-.2.7-.1 1 0 .3.2.5.5.5.8v27.1c0 .6.4 1 1 1s1-.4 1-1V44.2c0-1.4 1.1-2.5 2.5-2.5zm-9.2-8.4 2.7 3.2V32zM39.3 32v4.5l2.7-3.2z" fill="#cc0000" opacity="1" data-original="#000000" class=""></path><path d="M33 34.3c-.2 0-.5-.1-.7-.3l-2-1.9c-.3-.2-.4-.6-.3-.9l1.1-4.8c.1-.5.7-.9 1.2-.8.2 0 .3.1.5.3.1-.1.2-.2.4-.2.5-.2 1.1.1 1.3.7l1.5 4.8c.1.4 0 .8-.3 1l-2 1.9c-.2.1-.5.2-.7.2zm-.9-3.2.9.9.9-.8-1-3.3zM56.4 11c-2.5 0-4.2-2.5-4.2-4.8C52.2 3.8 54 2 56.4 2c1-.1 2.1.3 2.9 1.1s1.3 1.9 1.3 3.1c0 2.3-1.8 4.8-4.2 4.8zm.2-7h-.1c-1.3 0-2.3.9-2.3 2.2s1 2.8 2.2 2.8 2.2-1.5 2.2-2.8c0-.6-.3-1.3-.7-1.7-.3-.2-.7-.5-1.3-.5zM58.6 40.9c-1.8 0-3.2-1.4-3.2-3.2v-12c0-.6.4-1 1-1s1 .4 1 1v12c0 .7.5 1.2 1.2 1.2s1.2-.5 1.2-1.2V17.9c0-.6.4-1 1-1s1 .4 1 1v19.8c0 1.8-1.4 3.2-3.2 3.2z" fill="#cc0000" opacity="1" data-original="#000000" class=""></path><path d="M54.2 40.9c-1.8 0-3.2-1.4-3.2-3.2V17.9c0-.6.4-1 1-1s1 .4 1 1v19.8c0 .7.5 1.2 1.2 1.2s1.2-.5 1.2-1.2v-12c0-.6.4-1 1-1s1 .4 1 1v12c0 1.8-1.4 3.2-3.2 3.2z" fill="#cc0000" opacity="1" data-original="#000000" class=""></path><path d="M62.2 27h-1.3c-.6 0-1-.4-1-1s.4-1 1-1h1.3c.4 0 .8-.4.8-.8V16c0-1-.7-1.7-1.7-1.7h-9.8c-1 0-1.7.7-1.7 1.7v8.4c0 .3.3.6.6.6H52c.6 0 1 .4 1 1s-.4 1-1 1h-1.6c-1.5 0-2.6-1.1-2.6-2.6V16c0-2 1.7-3.7 3.7-3.7h9.8c2 0 3.7 1.7 3.7 3.7v8.2c0 1.5-1.3 2.8-2.8 2.8zM9.6 11c-2.4 0-4.2-2.5-4.2-4.8C5.4 3.8 7.2 2 9.6 2c1-.1 2.1.3 2.9 1.1s1.3 1.9 1.3 3.1c0 2.3-1.8 4.8-4.2 4.8zm.2-7h-.1c-1.4 0-2.3.9-2.3 2.2S8.4 9 9.6 9s2.2-1.5 2.2-2.8c0-.6-.3-1.3-.7-1.7-.3-.2-.7-.5-1.3-.5zM11.8 40.9c-1.8 0-3.2-1.4-3.2-3.2v-12c0-.6.4-1 1-1s1 .4 1 1v12c0 .7.5 1.2 1.2 1.2s1.2-.5 1.2-1.2V17.9c0-.6.4-1 1-1s1 .4 1 1v19.8c0 1.8-1.4 3.2-3.2 3.2z" fill="#cc0000" opacity="1" data-original="#000000" class=""></path><path d="M7.4 40.9c-1.8 0-3.2-1.4-3.2-3.2V17.9c0-.6.4-1 1-1s1 .4 1 1v19.8c0 .7.5 1.2 1.2 1.2s1.2-.5 1.2-1.2v-12c0-.6.4-1 1-1s1 .4 1 1v12c0 1.8-1.4 3.2-3.2 3.2z" fill="#cc0000" opacity="1" data-original="#000000" class=""></path><path d="M15.4 27H14c-.6 0-1-.4-1-1s.4-1 1-1h1.4c.4 0 .8-.4.8-.8V16c0-1-.7-1.7-1.7-1.7H4.7c-1 0-1.7.7-1.7 1.7v8.4c0 .3.3.6.6.6h1.6c.6 0 1 .4 1 1s-.4 1-1 1H3.6C2.1 27 1 25.9 1 24.4V16c0-2 1.7-3.7 3.7-3.7h9.8c2 0 3.7 1.7 3.7 3.7v8.2c0 1.5-1.3 2.8-2.8 2.8zM34.5 53.4h-.2c-.4-.1-.8-.1-1.3-.1h-.3c-.6 0-1-.4-1-1s.4-1 1-1h.3c.5 0 1.1 0 1.7.1.5.1.9.6.8 1.2-.1.5-.5.8-1 .8z" fill="#cc0000" opacity="1" data-original="#000000" class=""></path><path d="M33 64.1c-6.2 0-11.1-2.8-11.1-6.4 0-2 1.6-3.9 4.4-5.1.5-.2 1.1 0 1.3.5s0 1.1-.5 1.3c-2 .9-3.2 2.1-3.2 3.3 0 2.1 3.7 4.4 9.1 4.4s9.1-2.3 9.1-4.4c0-1.2-1.2-2.4-3.2-3.3-.5-.2-.7-.8-.5-1.3s.8-.7 1.3-.5c2.8 1.2 4.4 3.1 4.4 5.1 0 3.6-4.9 6.4-11.1 6.4zM56.4 44.7c-4.8 0-8.6-2.2-8.6-5 0-1.5 1.1-2.9 2.9-3.8.5-.2 1.1 0 1.3.4.2.5 0 1.1-.4 1.3-1.1.5-1.7 1.3-1.7 2 0 1.4 2.8 3 6.6 3s6.6-1.6 6.6-3c0-.7-.7-1.5-1.7-2-.5-.2-.7-.8-.4-1.3s.8-.7 1.3-.4c1.8.9 2.9 2.3 2.9 3.8-.2 2.8-4 5-8.8 5zM9.5 44.7c-4.8 0-8.6-2.2-8.6-5 0-1.5 1.1-2.9 2.9-3.8.5-.2 1.1 0 1.3.4.2.5 0 1.1-.4 1.3-1.1.5-1.7 1.3-1.7 2 0 1.4 2.8 3 6.6 3s6.6-1.6 6.6-3c0-.7-.6-1.4-1.6-1.9-.5-.2-.7-.8-.4-1.3.2-.5.8-.7 1.3-.4 1.8.9 2.8 2.2 2.8 3.7-.2 2.8-4 5-8.8 5z" fill="#cc0000" opacity="1" data-original="#000000" class=""></path><path d="M26.7 54.1c-.2 0-.4-.1-.6-.2l-13.2-9.7c-.4-.3-.5-1-.2-1.4s1-.5 1.4-.2l13.2 9.7c.4.3.5 1 .2 1.4-.2.3-.5.4-.8.4zM39.8 53.7c-.3 0-.6-.1-.8-.4-.3-.4-.2-1.1.2-1.4l12.2-9c.4-.3 1.1-.2 1.4.2s.2 1.1-.2 1.4l-12.2 9c-.2.1-.4.2-.6.2z" fill="#cc0000" opacity="1" data-original="#000000" class=""></path></g></svg>