<svg xmlns="http://www.w3.org/2000/svg" version="1.1" xmlns:xlink="http://www.w3.org/1999/xlink" width="512" height="512" x="0" y="0" viewBox="0 0 32 32" style="enable-background:new 0 0 512 512" xml:space="preserve" class=""><g><path d="M25 18h-4.27c-.749 0-1.24.86-.863 1.506A1 1 0 1 1 18 20c0-.173.047-.349.133-.494.384-.65-.117-1.506-.863-1.506H14v-2c1.654 0 3-1.346 3-3s-1.346-3-3-3V7a1 1 0 0 0-1-1H3C1.346 6 0 7.346 0 9v20c0 1.654 1.346 3 3 3h20c1.654 0 3-1.346 3-3V19a1 1 0 0 0-1-1zM2 9c0-.552.449-1 1-1h9v3.27c0 .753.855 1.241 1.505.863A1.001 1.001 0 1 1 14 14a.987.987 0 0 1-.495-.133c-.652-.384-1.505.113-1.505.863V18h-2c0-1.654-1.346-3-3-3s-3 1.346-3 3H2zm10 21H3c-.551 0-1-.448-1-1v-9h3.27c.747 0 1.24-.861.863-1.506A.99.99 0 0 1 6 18a1.001 1.001 0 0 1 2 0 .99.99 0 0 1-.133.494C7.488 19.14 7.986 20 8.73 20H12v2c-1.654 0-3 1.346-3 3s1.346 3 3 3zm12-1a1 1 0 0 1-1 1h-9v-3.27c0-.757-.85-1.244-1.505-.863A1.001 1.001 0 1 1 12 24c.173 0 .349.047.495.133.653.384 1.505-.108 1.505-.863V20h2c0 1.654 1.346 3 3 3s3-1.346 3-3h2z" fill="#cc0000" opacity="1" data-original="#000000"></path><path d="M29 0H19a1 1 0 0 0-1 1v4.27c0 .64.69 1.124 1.294.946C19.54 6.143 19.732 6 20 6a1 1 0 0 1 0 2 .986.986 0 0 1-.494-.133c-.64-.372-1.508.13-1.508.867v4.27c0 .553.447 1 1.02.996H22c0 1.654 1.346 3 3 3s3-1.346 3-3h3a1 1 0 0 0 1-1V3c0-1.654-1.346-3-3-3zm1 12h-3.27c-.547 0-1.043.54-.983 1.091.035.317.253.587.253.909a1 1 0 0 1-2 0c0-.272.146-.504.219-.758.17-.593-.331-1.242-.95-1.242H20s0-2 .001-2c1.654 0 3-1.346 3-3s-1.346-3-3-3V2h9a1 1 0 0 1 1 1z" fill="#cc0000" opacity="1" data-original="#000000"></path></g></svg>