<svg xmlns="http://www.w3.org/2000/svg" version="1.1" xmlns:xlink="http://www.w3.org/1999/xlink" width="512" height="512" x="0" y="0" viewBox="0 0 64 64" style="enable-background:new 0 0 512 512" xml:space="preserve"><g><path d="M42.838 46.318a20.619 20.619 0 0 0 8.662-16.93 20.87 20.87 0 0 0-6.373-15.077 18.936 18.936 0 0 0-14.063-5.289c-9.87.483-18.012 8.942-18.536 19.258a20.543 20.543 0 0 0 8.67 18.064 1.413 1.413 0 0 1 .552 1.158v1.95A1.989 1.989 0 0 0 21 51v2a2.002 2.002 0 0 0 2 2v1a2.995 2.995 0 0 0 2 2.816v.517A3.545 3.545 0 0 0 28.4 63h7.2a3.545 3.545 0 0 0 3.4-3.667v-.517A2.995 2.995 0 0 0 41 56v-1a2.002 2.002 0 0 0 2-2v-2a1.989 1.989 0 0 0-.75-1.549v-1.884a1.523 1.523 0 0 1 .588-1.249zM14.525 28.382c.473-9.303 7.78-16.929 16.637-17.361a16.887 16.887 0 0 1 12.586 4.738A18.862 18.862 0 0 1 49.5 29.388a18.615 18.615 0 0 1-7.81 15.292 3.502 3.502 0 0 0-1.44 2.887V49h-16.5v-1.498a3.39 3.39 0 0 0-1.408-2.799 18.556 18.556 0 0 1-7.817-16.321zM35.6 61h-7.2a1.553 1.553 0 0 1-1.4-1.667V59h10v.333A1.553 1.553 0 0 1 35.6 61zm3.4-5a1.001 1.001 0 0 1-1 1H26a1.001 1.001 0 0 1-1-1v-1h14zm-16-3v-2h18l.001 2zM31 1h2v5h-2zM54 27h5v2h-5zM5 27h5v2H5zM12.2 9.617l1.413-1.414 3.535 3.536-1.414 1.413zM46.841 11.737l3.535-3.535 1.414 1.414-3.535 3.535z" fill="#cc0000" opacity="1" data-original="#000000"></path><path d="M30.755 39.917a.997.997 0 0 0 .245-.655V18.738a.997.997 0 0 0-.245-.655A6.255 6.255 0 0 0 26 16c-3.309 0-6 2.371-6 5.286a4.037 4.037 0 0 0 .039.554A5.157 5.157 0 0 0 17 26.429a4.82 4.82 0 0 0 1.06 3 4.82 4.82 0 0 0-1.06 3 5.192 5.192 0 0 0 3.01 4.584C20.185 39.789 22.805 42 26 42a6.255 6.255 0 0 0 4.755-2.083zm-8.716-3 1.255-.807H25v-2h-2a1.002 1.002 0 0 0-.541.16l-1.51.97A3.225 3.225 0 0 1 19 32.43a2.989 2.989 0 0 1 1.093-2.247c.023-.02.032-.05.053-.072H23v-2h-3.42A2.833 2.833 0 0 1 19 26.43a3.225 3.225 0 0 1 2.053-2.852l1.24 1.24a1 1 0 0 0 .707.293h2v-2h-1.586l-1.355-1.355a2.28 2.28 0 0 1-.059-.469C22 19.475 23.794 18 26 18a4.332 4.332 0 0 1 3 1.138v19.724A4.332 4.332 0 0 1 26 40a3.737 3.737 0 0 1-3.961-3.082zM33.895 41.937a11.411 11.411 0 0 0 1.197.063l.157-.001a11.698 11.698 0 0 0 3.131-.486 1 1 0 0 0 .719-.96v-1.447a.587.587 0 0 1 .257-.523 9.824 9.824 0 0 0 1.493-.914.397.397 0 0 1 .443.009l1.178.723a1.003 1.003 0 0 0 1.246-.16 13.184 13.184 0 0 0 3.256-5.999 1 1 0 0 0-.449-1.089l-1.482-.91a10.587 10.587 0 0 0 0-2.486l1.482-.911a.999.999 0 0 0 .448-1.088 13.185 13.185 0 0 0-3.249-6.001.998.998 0 0 0-1.246-.161l-1.184.726a.399.399 0 0 1-.442.01 9.8 9.8 0 0 0-1.493-.915.587.587 0 0 1-.258-.524V17.44a1 1 0 0 0-.718-.959 11.611 11.611 0 0 0-3.447-.48c-.35.004-.698.026-1.04.063a1 1 0 0 0-.894.995v7.603a1 1 0 0 0 1.29.957 2.746 2.746 0 0 1 .8-.119 3.319 3.319 0 0 1 3.092 3.5 3.319 3.319 0 0 1-3.091 3.5 2.746 2.746 0 0 1-.8-.12 1 1 0 0 0-1.291.958v7.604a1 1 0 0 0 .895.995zM35 34.499l.09.001a5.314 5.314 0 0 0 5.092-5.5 5.314 5.314 0 0 0-5.091-5.5l-.091.001V18a10.034 10.034 0 0 1 2.099.217v.676a2.572 2.572 0 0 0 1.369 2.315 7.81 7.81 0 0 1 1.19.73 2.383 2.383 0 0 0 2.68.088l.47-.288a11.205 11.205 0 0 1 2.028 3.797l-1.402.862a.999.999 0 0 0-.462 1.023 8.827 8.827 0 0 1 0 3.16 1.002 1.002 0 0 0 .462 1.024l1.402.86a11.18 11.18 0 0 1-2.034 3.794l-.464-.285a2.385 2.385 0 0 0-2.68.09 7.835 7.835 0 0 1-1.19.729 2.572 2.572 0 0 0-1.37 2.314v.672a9.406 9.406 0 0 1-1.877.221L35 40z" fill="#cc0000" opacity="1" data-original="#000000"></path><path d="M26 23.11h2v2h-2zM26 34.11h2v2h-2zM24 28.11h2v2h-2z" fill="#cc0000" opacity="1" data-original="#000000"></path></g></svg>