<svg xmlns="http://www.w3.org/2000/svg" version="1.1" xmlns:xlink="http://www.w3.org/1999/xlink" width="512" height="512" x="0" y="0" viewBox="0 0 512 512" style="enable-background:new 0 0 512 512" xml:space="preserve" class=""><g><path d="m277.883 195.387 20.226-6.742 10.664 31.996-20.226 6.742zm0 0" fill="#cc0000" opacity="1" data-original="#000000" class=""></path><path d="M256 213.332c-47.05 0-85.332-52.64-85.332-117.332V85.332C170.668 38.282 208.949 0 256 0s85.332 38.281 85.332 85.332V96c0 64.691-38.281 117.332-85.332 117.332zm0-192c-35.297 0-64 28.707-64 64V96c0 52.93 28.703 96 64 96s64-43.07 64-96V85.332c0-35.293-28.703-64-64-64zm0 0" fill="#cc0000" opacity="1" data-original="#000000" class=""></path><path d="M309.332 320c-1.344 0-2.687-.246-3.957-.758L256 299.488l-49.367 19.754c-3.016 1.195-6.387.98-9.192-.617a10.654 10.654 0 0 1-5.293-7.543l-10.664-64a10.69 10.69 0 0 1 2.973-9.3l21.336-21.333a10.653 10.653 0 0 1 13.941-.992l36.266 27.2 36.266-27.2c4.234-3.18 10.187-2.773 13.941.992l21.336 21.332a10.657 10.657 0 0 1 2.973 9.301l-10.664 64a10.654 10.654 0 0 1-5.293 7.543 10.529 10.529 0 0 1-5.227 1.375zM256 277.332c1.344 0 2.687.246 3.969.758l41.023 16.418 7.582-45.516-10.898-10.914-35.278 26.457a10.652 10.652 0 0 1-12.796 0l-35.266-26.445-10.91 10.914 7.582 45.512 41.023-16.414a10.46 10.46 0 0 1 3.969-.77zm0 0" fill="#cc0000" opacity="1" data-original="#000000" class=""></path><path d="M96 341.332H74.668c0-30.855 18.152-58.344 48.562-73.547l64-32 9.547 19.086-64 32C109.75 298.391 96 318.742 96 341.332zM416 309.332c-2.73 0-5.46-1.043-7.543-3.125-9.289-9.289-16.168-12.746-28.648-19.039l-64.586-32.29c-5.27-2.632-7.403-9.042-4.77-14.312 2.645-5.27 9.055-7.394 14.317-4.77l64 32c14.132 7.126 23.05 11.618 34.773 23.34a10.659 10.659 0 0 1 0 15.083 10.673 10.673 0 0 1-7.543 3.113zM288 96h-21.332c-16.098 0-30.89-5.738-42.668-16.363C212.223 90.262 197.43 96 181.332 96c-5.887 0-10.664-4.777-10.664-10.668 0-5.887 4.777-10.664 10.664-10.664 13.484 0 25.633-6.113 34.242-17.207 4.031-5.203 12.82-5.203 16.852 0 8.61 11.094 20.758 17.207 34.242 17.207H288c5.898 0 10.668 4.777 10.668 10.664 0 5.89-4.77 10.668-10.668 10.668zm0 0" fill="#cc0000" opacity="1" data-original="#000000" class=""></path><path d="M85.332 405.332c-23.531 0-42.664-19.133-42.664-42.664S61.801 320 85.332 320 128 339.137 128 362.668s-19.137 42.664-42.668 42.664zm0-64c-11.766 0-21.332 9.57-21.332 21.336S73.566 384 85.332 384s21.336-9.566 21.336-21.332-9.57-21.336-21.336-21.336zM138.668 512h-128C4.778 512 0 507.23 0 501.332V480c0-14.238 5.547-27.625 15.617-37.707 10.078-10.07 23.477-15.625 37.715-15.625h64c14.254 0 27.648 5.555 37.719 15.625 4.16 4.184 4.16 10.922-.012 15.094-4.168 4.16-10.922 4.148-15.082-.012-6.035-6.047-14.07-9.375-22.625-9.375h-64c-8.543 0-16.574 3.34-22.621 9.375-6.05 6.05-9.379 14.082-9.379 22.625v10.668h117.336c5.887 0 10.664 4.766 10.664 10.664S144.555 512 138.668 512zM256 405.332c-23.531 0-42.668-19.133-42.668-42.664S232.469 320 256 320s42.668 19.137 42.668 42.668-19.137 42.664-42.668 42.664zm0-64c-11.766 0-21.332 9.57-21.332 21.336S244.234 384 256 384s21.332-9.566 21.332-21.332-9.566-21.336-21.332-21.336zM330.668 512H181.332c-5.887 0-10.664-4.77-10.664-10.668V480c0-14.238 5.547-27.625 15.613-37.707 10.082-10.07 23.48-15.625 37.719-15.625h64c14.25 0 27.648 5.555 37.719 15.625 10.058 10.07 15.613 23.469 15.613 37.707v21.332A10.656 10.656 0 0 1 330.668 512zM192 490.668h128V480c0-8.543-3.34-16.586-9.375-22.625-6.04-6.047-14.07-9.375-22.625-9.375h-64c-8.543 0-16.574 3.34-22.625 9.375C195.328 463.425 192 471.457 192 480zM426.668 405.332c-23.531 0-42.668-19.133-42.668-42.664S403.137 320 426.668 320s42.664 19.137 42.664 42.668-19.133 42.664-42.664 42.664zm0-64c-11.766 0-21.336 9.57-21.336 21.336S414.902 384 426.668 384 448 374.434 448 362.668s-9.566-21.336-21.332-21.336zM501.332 512h-128a10.656 10.656 0 0 1-10.664-10.668 10.653 10.653 0 0 1 10.664-10.664h117.336V480c0-8.543-3.34-16.586-9.379-22.625-6.035-6.047-14.066-9.375-22.621-9.375h-64c-8.547 0-16.59 3.34-22.625 9.375a10.652 10.652 0 0 1-15.082 0 10.652 10.652 0 0 1 0-15.082c10.07-10.07 23.465-15.625 37.707-15.625h64c14.25 0 27.648 5.555 37.715 15.625C506.44 452.363 512 465.762 512 480v21.332A10.66 10.66 0 0 1 501.332 512zm0 0" fill="#cc0000" opacity="1" data-original="#000000" class=""></path></g></svg>