<svg xmlns="http://www.w3.org/2000/svg" version="1.1" xmlns:xlink="http://www.w3.org/1999/xlink" width="512" height="512" x="0" y="0" viewBox="0 0 512 512" style="enable-background:new 0 0 512 512" xml:space="preserve" class=""><g><path d="M81.125 360.63v92.21a7 7 0 1 1-14 0v-92.21a7 7 0 1 1 14 0zm22.769-7a7 7 0 0 0-7 7v92.21a7 7 0 1 0 14 0v-92.21a7 7 0 0 0-7-7zm-59.538 0a7 7 0 0 0-7 7v92.21a7 7 0 1 0 14 0v-92.21a7 7 0 0 0-7-7zM470.695 80.09l-47.662 27.518-10.383 36.16c24.946 33.682 38.115 73.627 38.115 115.761 0 107.417-87.39 194.807-194.807 194.807a194.665 194.665 0 0 1-116.666-38.803v56.598c0 8.71-7.086 15.797-15.796 15.797h-2.5c.188.737.299 1.505.299 2.3a9.3 9.3 0 1 1-18.601 0c0-.796.111-1.563.299-2.3H45.258c.188.737.299 1.505.299 2.3a9.3 9.3 0 1 1-18.601 0c0-.796.111-1.563.299-2.3h-2.499c-8.71 0-15.797-7.086-15.797-15.797V341.339c0-8.71 7.086-15.796 15.797-15.796h18.558v-21.407c0-10.052 8.178-18.23 18.229-18.23h1.386a197.174 197.174 0 0 1-1.777-26.377c0-49.175 18.373-96.129 51.735-132.213 28.309-30.619 65.226-51.11 105.594-58.978l-15.026-8.36a6.998 6.998 0 0 1-.096-12.179l31.189-18.007a6.998 6.998 0 0 1 5.191-.73l118.638 29.535 65.909-38.053c24.868-14.356 64.482-8.8 75.692 10.617 5.177 8.969 8.259 27.253-29.283 48.929zM221.051 53.748l74.209 41.287 45.655-26.359-101.817-25.347zm-80.037 70.577a7.002 7.002 0 0 1 6.242-.751l32.078 11.561c11.44-24.273 26.075-42.483 42.356-53.14-35.554 6.883-67.38 24.329-92.215 48.798.364.153.725.308 1.091.46zm51.542 15.575 15.389 5.546 41.012-23.678V85.745c-21.221 3.481-41.426 22.911-56.401 54.155zm70.402-26.215 18.172-10.492-18.172-10.11zM75.3 252.529h79.094c.428-22.287 2.896-43.895 7.37-64.384l-45.104-36.782a6.997 6.997 0 0 1-2.341-3.671c-23.15 29.252-37.485 65.645-39.019 104.837zm281.64 28.622c-1.831 30.201-7.402 57.999-15.819 81.888 18.136 4.103 35.052 9.541 50.21 16.202 26.808-30.28 43.634-69.582 45.285-112.713h-59.215l-.187.65a6.997 6.997 0 0 1-3.228 4.13zM262.958 433.31c23.183-3.793 44.214-26.21 58.982-59.842-18.73-3.269-38.585-5.134-58.982-5.482zm-14-166.781h-80.561c.681 34.005 6.314 66.256 16.238 93.669 20.381-3.74 41.994-5.844 64.324-6.207v-87.462zm-58.986 107.004a186.55 186.55 0 0 0 5.272 11.002c14.881 28.517 33.738 45.544 53.713 48.781v-65.323c-20.232.355-40.147 2.247-58.985 5.54zm100.288 63.524c34.794-6.71 66.07-23.417 90.7-47.016-13.695-5.638-28.813-10.268-44.946-13.808-11.72 27.664-27.537 48.891-45.754 60.824zm52.011-147.481a6.987 6.987 0 0 1-2.974.679 7 7 0 0 1-6.999-7.112l.264-16.614h-69.604v87.456c22.233.368 43.892 2.481 64.27 6.212 7.461-20.674 12.729-44.666 15.043-70.621zm-66.436-103.512a612.479 612.479 0 0 1-12.877 5.469v60.996h69.827l1.472-92.645c-2.144.439-4.302.858-6.465 1.258-13.042 6.734-32.1 16.228-51.957 24.922zm-26.877 10.972c-45.84 17.127-60.197 12.863-66.979 7.591a4.047 4.047 0 0 1-.127-.102l-7.841-6.394c-3.358 17.42-5.239 35.645-5.614 54.397h80.561zm-171.885 88.87h9.635c10.052 0 18.229 8.178 18.229 18.23v21.407h18.558c8.71 0 15.796 7.086 15.796 15.796v30.625c10.021-3.463 20.547-6.446 31.495-8.931-10.039-28.516-15.719-61.695-16.392-96.504h-79.1c.249 6.498.845 12.977 1.779 19.377zm-19.761 39.637h33.625v-21.407a4.234 4.234 0 0 0-4.229-4.23H61.542a4.234 4.234 0 0 0-4.229 4.23v21.407zm67.98 15.796a1.82 1.82 0 0 0-1.796-1.796H24.755c-.974 0-1.797.823-1.797 1.796v130.792c0 .974.823 1.797 1.797 1.797h98.741a1.82 1.82 0 0 0 1.796-1.797zm14 56.315a180.536 180.536 0 0 0 82.068 39.336c-14.471-9.509-27.611-25.058-38.527-45.978a202.185 202.185 0 0 1-6.919-14.725c-12.951 2.835-25.239 6.37-36.622 10.539zm268.376-236.536-26.247 91.411h55.208c-1.233-32.849-11.146-64.081-28.961-91.411zM487.853 38.16c-6.673-11.558-37.615-16.436-56.568-5.493L212.13 159.196a7 7 0 0 1-5.874.523l-60.438-21.782-12.945 8.583 57.744 47.089c2.145 1.607 15.636 7.626 79.523-20.335 35.057-15.344 67.633-33.251 67.958-33.43a6.998 6.998 0 0 1 10.377 6.241l-1.984 124.932 18.046-10.419 45.818-159.571a6.997 6.997 0 0 1 3.228-4.13l50.11-28.931c19.428-11.216 28.459-22.358 24.16-29.806z" fill="#cc0000" opacity="1" data-original="#000000"></path></g></svg>