<svg xmlns="http://www.w3.org/2000/svg" version="1.1" xmlns:xlink="http://www.w3.org/1999/xlink" width="512" height="512" x="0" y="0" viewBox="0 0 512 512" style="enable-background:new 0 0 512 512" xml:space="preserve" class=""><g><path d="M256 30V0M30 256H0M482 256h30M470.939 186.162l28.531-9.27M438.838 123.161l24.27-17.634M388.839 73.162l17.634-24.27M325.838 41.061l9.27-28.531M186.162 41.061l-9.27-28.531M123.161 73.162l-17.634-24.27M73.162 123.161l-24.27-17.634M41.061 186.162l-28.531-9.27" style="stroke-width: 22; stroke-miterlimit: 10;" fill="none" stroke="#cc0000" stroke-width="22" stroke-miterlimit="10" data-original="#000000" opacity="1" class=""></path><circle cx="256" cy="205.656" r="52.5" style="stroke-width: 22; stroke-miterlimit: 10;" fill="none" stroke="#cc0000" stroke-width="22" stroke-miterlimit="10" data-original="#000000" opacity="1" class=""></circle><path d="M323.205 421.055v-76.951c19.445 11.062 41.518 16.95 64.496 16.951h43.448c16.553 0 30.544-12.978 30.998-29.524.471-17.167-13.305-31.232-30.366-31.232h-44.079c-14.967 0-29.038-5.829-39.62-16.411a87.854 87.854 0 0 0-62.123-25.732H226.04a87.854 87.854 0 0 0-62.123 25.732c-10.582 10.581-24.653 16.411-39.62 16.411H80.851c-16.553 0-30.544 12.978-30.998 29.524-.471 17.167 13.305 31.232 30.366 31.232h44.08c22.978-.001 45.051-5.889 64.496-16.951v76.951" style="stroke-width: 22; stroke-miterlimit: 10;" fill="none" stroke="#cc0000" stroke-width="22" stroke-miterlimit="10" data-original="#000000" opacity="1" class=""></path><path d="M394.187 421.055c20.724 0 37.571 16.602 37.965 37.232.407 21.288-17.424 38.713-38.716 38.713H117.813c-20.724 0-37.571-16.602-37.965-37.232-.407-21.288 17.423-38.713 38.715-38.713h275.624zM431.53 300.299A181.338 181.338 0 0 0 437 256c0-99.964-81.036-181-181-181S75 156.036 75 256c0 15.287 1.904 30.128 5.472 44.308" style="stroke-width: 22; stroke-miterlimit: 10;" fill="none" stroke="#cc0000" stroke-width="22" stroke-miterlimit="10" data-original="#000000" opacity="1" class=""></path></g></svg>