<svg xmlns="http://www.w3.org/2000/svg" version="1.1" xmlns:xlink="http://www.w3.org/1999/xlink" width="512" height="512" x="0" y="0" viewBox="0 0 512 512" style="enable-background:new 0 0 512 512" xml:space="preserve"><g><circle cx="256" cy="169.76" r="10.08" fill="#cc0000" opacity="1" data-original="#000000"></circle><circle cx="256" cy="256" r="10.08" fill="#cc0000" opacity="1" data-original="#000000"></circle><circle cx="256" cy="323.76" r="10.08" fill="#cc0000" opacity="1" data-original="#000000"></circle><circle cx="256" cy="384.43" r="10.08" fill="#cc0000" opacity="1" data-original="#000000"></circle><circle cx="256" cy="434.59" r="10.08" fill="#cc0000" opacity="1" data-original="#000000"></circle><circle cx="256" cy="47.33" r="10.08" fill="#cc0000" opacity="1" data-original="#000000"></circle><circle cx="256" cy="80.55" r="10.08" fill="#cc0000" opacity="1" data-original="#000000"></circle><path d="M120.02 433.79c0 1.93 1.57 3.5 3.5 3.5h106.62c2.52 0 4.66-1.64 5.31-4.07.66-2.43-.37-4.92-2.55-6.19l-23.67-13.76a7.507 7.507 0 0 0-7.62.05l-8.47 5.08a3.49 3.49 0 0 0-1.2 4.8 3.49 3.49 0 0 0 4.8 1.2l8.47-5.08c.16-.09.35-.09.51 0l18.86 10.96H123.52c-1.94.01-3.5 1.57-3.5 3.51z" fill="#cc0000" opacity="1" data-original="#000000"></path><path d="M495.42 384.45a7.478 7.478 0 0 0-6.68-4.09h-33.67c-3.23 0-6.34-1.53-8.32-4.09L430 354.55a195.16 195.16 0 0 0-30.55-31.53l-28.25-23.24a23.866 23.866 0 0 1-8.24-13.77l-11.89-59.93c-5.15-25.97-27.18-45.67-53.56-47.91-4.43-.38-8.62-2.03-12.12-4.79a22.523 22.523 0 0 1-8.61-17.77v-8.74c15.32-8.81 25.91-27.37 25.91-48.8 0-19.57-8.98-37.7-23.43-47.29a3.498 3.498 0 1 0-3.87 5.83c12.52 8.32 20.3 24.21 20.3 41.46 0 26.05-17.48 47.25-38.96 47.25s-38.96-21.19-38.96-47.25c0-16.49 7.27-32.03 18.96-40.54 1.56-1.14 1.91-3.33.77-4.89s-3.33-1.91-4.89-.77c-13.68 9.96-21.84 27.23-21.84 46.2 0 20.74 9.92 38.79 24.45 47.92v9.63c0 6.97-3.14 13.45-8.61 17.77a22.573 22.573 0 0 1-12.12 4.79c-26.38 2.24-48.41 21.94-53.56 47.91l-11.89 59.93c-1.07 5.39-4 10.28-8.24 13.77l-28.38 23.35a195.485 195.485 0 0 0-30.34 31.26l-16.94 21.9a10.563 10.563 0 0 1-8.3 4.07H23.26c-2.83 0-5.39 1.57-6.68 4.09s-1.06 5.51.6 7.8a37.217 37.217 0 0 0 23.65 14.86 33.595 33.595 0 0 0-9.82 24.46c.21 9.67 4.58 18.78 11.98 25 20.34 17.07 46.17 26.48 72.72 26.48 47.58 0 94.73-6.97 140.26-20.67.02.01.04.02.06.02a486.35 486.35 0 0 0 140.26 20.65c26.56 0 52.38-9.4 72.72-26.48a33.568 33.568 0 0 0 8.66-40.34 3.497 3.497 0 1 0-6.3 3.04c5.3 10.97 2.48 24.1-6.85 31.93a106.26 106.26 0 0 1-68.22 24.84c-43.35 0-86.39-5.87-128.12-17.44l12.03-3.77a75.418 75.418 0 0 1 19.36-3.39l44.47-1.91a7.452 7.452 0 0 0 6.95-5.65c.6-2.38.01-4.8-1.48-6.6h38.98c1.93 0 3.5-1.57 3.5-3.5s-1.57-3.5-3.5-3.5l-49.76.02-28.33-16.98a7.507 7.507 0 0 0-7.62-.05l-28.46 16.54c-1.67.97-2.24 3.11-1.27 4.78s3.11 2.24 4.79 1.27l28.46-16.54c.16-.09.35-.09.51 0l37.17 22.28c.12.07.32.19.23.55s-.32.37-.46.38l-44.47 1.91a82.72 82.72 0 0 0-21.16 3.71l-18.8 5.9c-46.52 14.59-94.83 22-143.59 22-24.91 0-49.14-8.82-68.22-24.84a26.565 26.565 0 0 1-9.48-19.79 26.593 26.593 0 0 1 8.62-20.18c1.18-1.08 2.42-2.14 3.67-3.14l8.97.79c.64.06 1.29.08 1.93.08 4.98 0 9.79-1.7 13.69-4.88l78.4-63.83a84.689 84.689 0 0 0 25.08-34.1l18.81-47 4.12 12.65c7.73 23.75 7.04 49.67-1.95 72.98l-11.48 29.78a14.507 14.507 0 0 1-13.17 9.3l-63.31 1.71a3.49 3.49 0 0 0-3.4 3.59c.05 1.93 1.67 3.44 3.59 3.4l63.31-1.71a21.48 21.48 0 0 0 19.51-13.78l11.48-29.78c9.56-24.8 10.3-52.39 2.07-77.66l-7.1-21.83a3.511 3.511 0 0 0-3.21-2.42 3.49 3.49 0 0 0-3.36 2.2l-22.4 55.97c-4.87 12.18-12.83 22.99-23 31.28l-78.4 63.83a14.66 14.66 0 0 1-10.59 3.25l-15.11-1.32a30.304 30.304 0 0 1-21.92-12.45c-.05-.07-.18-.25-.04-.52s.36-.27.45-.27h33.56c5.38 0 10.55-2.54 13.84-6.79l16.94-21.9a188.273 188.273 0 0 1 29.25-30.14l28.38-23.35a30.905 30.905 0 0 0 10.66-17.82l11.89-59.93c4.55-22.93 24-40.32 47.29-42.3 5.8-.49 11.29-2.66 15.86-6.27 7.16-5.66 11.27-14.13 11.27-23.26v-6.08c4.56 1.8 9.44 2.79 14.51 2.79 4.53 0 8.91-.79 13.05-2.24v5.54c0 9.13 4.11 17.61 11.27 23.26a29.537 29.537 0 0 0 15.86 6.27c23.29 1.97 42.74 19.37 47.29 42.3l11.89 59.93c1.38 6.97 5.17 13.3 10.66 17.82l28.25 23.24c10.91 8.98 20.82 19.2 29.45 30.4l16.75 21.73c3.29 4.27 8.47 6.82 13.86 6.82h33.67c.08 0 .31 0 .45.27s.01.45-.04.52a30.304 30.304 0 0 1-21.92 12.45l-15.11 1.32c-3.84.34-7.6-.82-10.59-3.25l-78.4-63.83a77.595 77.595 0 0 1-23-31.28l-22.4-55.97c-.55-1.37-1.94-2.26-3.36-2.2a3.487 3.487 0 0 0-3.21 2.42l-7.1 21.83c-8.22 25.28-7.49 52.86 2.07 77.66l11.48 29.78a21.475 21.475 0 0 0 19.52 13.78l86.49 2.24 13.5 10.99c3.91 3.18 8.71 4.88 13.69 4.88.64 0 1.28-.03 1.93-.08l15.11-1.32c10.8-.95 20.64-6.53 26.98-15.32 1.65-2.32 1.88-5.31.59-7.83zm-158.11-.57a14.507 14.507 0 0 1-13.17-9.3l-11.48-29.78c-8.98-23.31-9.68-49.23-1.95-72.98l4.12-12.65 18.81 47a84.597 84.597 0 0 0 25.08 34.1l56.02 45.61z" fill="#cc0000" opacity="1" data-original="#000000"></path><path d="m376.9 254.83 25.97 1.95c.09.01.18.01.27.01 1.81 0 3.35-1.4 3.49-3.24.14-1.93-1.3-3.61-3.23-3.75l-25.97-1.95c-1.92-.15-3.61 1.3-3.75 3.23s1.29 3.61 3.22 3.75zM346.05 181.92c.96 0 1.92-.39 2.61-1.17l17.37-19.4c1.29-1.44 1.17-3.65-.27-4.94s-3.65-1.17-4.94.27l-17.37 19.4a3.497 3.497 0 0 0 .27 4.94c.66.6 1.5.9 2.33.9zM108.87 256.79c.09 0 .18 0 .27-.01l25.97-1.95c1.93-.15 3.37-1.82 3.23-3.75s-1.84-3.38-3.75-3.23l-25.97 1.95a3.503 3.503 0 0 0-3.23 3.75 3.492 3.492 0 0 0 3.48 3.24zM163.34 180.75c.69.77 1.65 1.17 2.61 1.17.83 0 1.67-.29 2.33-.89 1.44-1.29 1.56-3.5.27-4.94l-17.37-19.4c-1.29-1.44-3.5-1.56-4.94-.27s-1.56 3.5-.27 4.94z" fill="#cc0000" opacity="1" data-original="#000000"></path></g></svg>