<svg xmlns="http://www.w3.org/2000/svg" version="1.1" xmlns:xlink="http://www.w3.org/1999/xlink" width="512" height="512" x="0" y="0" viewBox="0 0 682.667 682.667" style="enable-background:new 0 0 512 512" xml:space="preserve" class=""><g><defs stroke-width="17" style="stroke-width: 17;"><clipPath id="a" clipPathUnits="userSpaceOnUse" stroke-width="17" style="stroke-width: 17;"><path d="M0 512h512V0H0Z" fill="#cc0000" opacity="1" data-original="#000000" stroke-width="17" style="stroke-width: 17;"></path></clipPath></defs><g clip-path="url(#a)" transform="matrix(1.33333 0 0 -1.33333 0 682.667)" stroke-width="17" style="stroke-width: 17;"><path d="M0 0h-120v32c0 16.569 13.432 30 30 30h60c16.568 0 30-13.431 30-30Z" style="stroke-width: 17; stroke-linecap: butt; stroke-linejoin: miter; stroke-miterlimit: 10; stroke-dasharray: none; stroke-opacity: 1;" transform="translate(316 15)" fill="none" stroke="#cc0000" stroke-width="17" stroke-linecap="butt" stroke-linejoin="miter" stroke-miterlimit="10" stroke-dasharray="none" stroke-opacity="" data-original="#000000" opacity="1" class=""></path><path d="M0 0h-120v32c0 16.569 13.432 30 30 30h60c16.568 0 30-13.431 30-30Z" style="stroke-width: 17; stroke-linecap: butt; stroke-linejoin: miter; stroke-miterlimit: 10; stroke-dasharray: none; stroke-opacity: 1;" transform="translate(497 15)" fill="none" stroke="#cc0000" stroke-width="17" stroke-linecap="butt" stroke-linejoin="miter" stroke-miterlimit="10" stroke-dasharray="none" stroke-opacity="" data-original="#000000" opacity="1" class=""></path><path d="M0 0h-120v32c0 16.569 13.432 30 30 30h60c16.568 0 30-13.431 30-30Z" style="stroke-width: 17; stroke-linecap: butt; stroke-linejoin: miter; stroke-miterlimit: 10; stroke-dasharray: none; stroke-opacity: 1;" transform="translate(135 15)" fill="none" stroke="#cc0000" stroke-width="17" stroke-linecap="butt" stroke-linejoin="miter" stroke-miterlimit="10" stroke-dasharray="none" stroke-opacity="" data-original="#000000" opacity="1" class=""></path><path d="M0 0c0-16.569-13.432-30-30-30-16.568 0-30 13.431-30 30 0 16.569 13.432 30 30 30C-13.432 30 0 16.569 0 0Z" style="stroke-width: 17; stroke-linecap: butt; stroke-linejoin: miter; stroke-miterlimit: 10; stroke-dasharray: none; stroke-opacity: 1;" transform="translate(286 137)" fill="none" stroke="#cc0000" stroke-width="17" stroke-linecap="butt" stroke-linejoin="miter" stroke-miterlimit="10" stroke-dasharray="none" stroke-opacity="" data-original="#000000" opacity="1" class=""></path><path d="M0 0c0-16.569-13.432-30-30-30-16.568 0-30 13.431-30 30 0 16.569 13.432 30 30 30C-13.432 30 0 16.569 0 0Z" style="stroke-width: 17; stroke-linecap: butt; stroke-linejoin: miter; stroke-miterlimit: 10; stroke-dasharray: none; stroke-opacity: 1;" transform="translate(467 137)" fill="none" stroke="#cc0000" stroke-width="17" stroke-linecap="butt" stroke-linejoin="miter" stroke-miterlimit="10" stroke-dasharray="none" stroke-opacity="" data-original="#000000" opacity="1" class=""></path><path d="M0 0c0-16.569-13.432-30-30-30-16.568 0-30 13.431-30 30 0 16.569 13.432 30 30 30C-13.432 30 0 16.569 0 0Z" style="stroke-width: 17; stroke-linecap: butt; stroke-linejoin: miter; stroke-miterlimit: 10; stroke-dasharray: none; stroke-opacity: 1;" transform="translate(105 137)" fill="none" stroke="#cc0000" stroke-width="17" stroke-linecap="butt" stroke-linejoin="miter" stroke-miterlimit="10" stroke-dasharray="none" stroke-opacity="" data-original="#000000" opacity="1" class=""></path><path d="M0 0h-90v120h60c16.568 0 30-13.431 30-30zM0 0h90v120H30c-16.568 0-30-13.431-30-30Z" style="stroke-width: 17; stroke-linecap: butt; stroke-linejoin: miter; stroke-miterlimit: 10; stroke-dasharray: none; stroke-opacity: 1;" transform="translate(256 317)" fill="none" stroke="#cc0000" stroke-width="17" stroke-linecap="butt" stroke-linejoin="miter" stroke-miterlimit="10" stroke-dasharray="none" stroke-opacity="" data-original="#000000" opacity="1" class=""></path><path d="m0 0 30.002-28.588L60.002 0h180v240h-420V0Z" style="stroke-width: 17; stroke-linecap: butt; stroke-linejoin: miter; stroke-miterlimit: 10; stroke-dasharray: none; stroke-opacity: 1;" transform="translate(225.998 257)" fill="none" stroke="#cc0000" stroke-width="17" stroke-linecap="butt" stroke-linejoin="miter" stroke-miterlimit="10" stroke-dasharray="none" stroke-opacity="" data-original="#000000" opacity="1" class=""></path></g></g></svg>