<svg xmlns="http://www.w3.org/2000/svg" version="1.1" xmlns:xlink="http://www.w3.org/1999/xlink" width="512" height="512" x="0" y="0" viewBox="0 0 69 69" style="enable-background:new 0 0 512 512" xml:space="preserve" class=""><g><path d="M4.3 42.138a.75.75 0 0 0-1.5 0v1.801a.75.75 0 0 0 1.5 0zM3.55 47.053a.75.75 0 0 0-.75.75v10.222a.75.75 0 0 0 1.5 0V47.803a.75.75 0 0 0-.75-.75zM53.429 28.143a.75.75 0 0 0 1.5 0v-8.836a.75.75 0 0 0-1.5 0zM54.179 16.086a.75.75 0 0 0 .75-.75V14.17a.75.75 0 0 0-1.5 0v1.166c0 .414.336.75.75.75z" fill="#cc0000" opacity="1" data-original="#000000"></path><path d="m65.147 39.64-.55-.46.08-.09c1.66-1.98 1.36-4.92-.57-6.54a4.634 4.634 0 0 0-6.54.57c-2.44 2.89-4.21 5-6.64 7.89V13.64c0-1.5-1.22-2.71-2.72-2.71h-8.14V8.57c0-.83-.68-1.51-1.51-1.51h-3.85c-.44-2.82-2.92-5.02-5.84-5.02-2.98 0-5.42 2.16-5.85 5.02h-3.86c-.82 0-1.5.68-1.5 1.51v2.36h-8.15c-1.49 0-2.71 1.21-2.71 2.71v50.61c0 1.49 1.22 2.71 2.71 2.71h38.7c1.5 0 2.72-1.22 2.72-2.71v-8.8c.67-.8 11.43-13.6 12.71-15.12l.54.46c.61.51.7 1.43.18 2.05l-6.79 8.08c-.27.32-.23.79.09 1.06.14.11.31.17.48.17.22 0 .43-.09.58-.27l6.79-8.07c1.05-1.25.89-3.12-.36-4.17zM28.867 5.13c1.29 0 2.34 1.06 2.34 2.35 0 1.3-1.05 2.35-2.34 2.35s-2.35-1.05-2.35-2.35a2.36 2.36 0 0 1 2.35-2.35zm20.56 59.12c0 .68-.54 1.21-1.22 1.21h-38.7c-.67 0-1.21-.54-1.21-1.21V13.64c0-.67.54-1.21 1.21-1.21h8.15v.6c0 .83.67 1.51 1.5 1.51h19.4c.52 0 .98-.27 1.25-.67.17-.24.26-.53.26-.85v-.59h8.14c.67 0 1.22.54 1.22 1.21v29.15c-.34.41-6.47 7.7-6.62 7.9-.18.23-.31.5-.36.77-.03.1-1.39 6.41-1.39 6.42-.09.48.07.73.08.83l-.72.86c-.27.32-.23.79.09 1.06.32.26.79.23 1.06-.09l.72-.86c.27.05.62.03.9-.09l1.02-.41 5.03-2.05c.06-.03.13-.06.19-.1zm-.13-9.2-4.81-4.04 11.23-13.36 4.81 4.04zm14.23-16.92-2.03 2.41-4.82-4.04 2.03-2.42a3.142 3.142 0 0 1 4.43-.38 3.14 3.14 0 0 1 .39 4.43z" fill="#cc0000" opacity="1" data-original="#000000"></path><path d="M27.887 18.96h-13.69c-.72 0-1.3.59-1.3 1.3v13.69c0 .72.58 1.3 1.3 1.3h13.69c.71 0 1.3-.58 1.3-1.3V20.26c0-.71-.59-1.3-1.3-1.3zm-2.664 12.27a.75.75 0 0 1-1.061 0l-.767-.767c-.737.546-1.64.88-2.626.88a4.449 4.449 0 0 1-4.447-4.44 4.452 4.452 0 0 1 4.447-4.447 4.448 4.448 0 0 1 4.439 4.447 4.42 4.42 0 0 1-.765 2.488l.779.779a.748.748 0 0 1 .001 1.06z" fill="#cc0000" opacity="1" data-original="#000000"></path><path d="M20.769 23.955a2.95 2.95 0 0 0-2.947 2.947 2.947 2.947 0 0 0 2.947 2.94c.571 0 1.101-.171 1.552-.454l-1.123-1.123a.75.75 0 1 1 1.061-1.061l1.086 1.086c.225-.415.364-.883.364-1.388a2.947 2.947 0 0 0-2.94-2.947zM20.78 44.59a2.185 2.185 0 0 0-2.182 2.182v.991h4.363v-.991a2.183 2.183 0 0 0-2.181-2.182z" fill="#cc0000" opacity="1" data-original="#000000"></path><path d="M27.887 39.68h-13.69c-.72 0-1.3.58-1.3 1.3v13.69c0 .72.58 1.3 1.3 1.3h13.69c.71 0 1.3-.58 1.3-1.3V40.98c0-.72-.59-1.3-1.3-1.3zm-3.425 12.134a.75.75 0 0 1-1.5 0v-2.551h-4.363v2.551a.75.75 0 0 1-1.5 0v-5.042c0-2.03 1.651-3.682 3.682-3.682s3.682 1.651 3.682 3.682v5.042zM35.815 23.848h7.761a.75.75 0 0 0 0-1.5h-7.761a.75.75 0 0 0 0 1.5zM33.805 27.858h11.78a.75.75 0 0 0 0-1.5h-11.78a.75.75 0 0 0 0 1.5zM33.805 31.868h11.78a.75.75 0 0 0 0-1.5h-11.78a.75.75 0 0 0 0 1.5zM43.576 43.066h-7.761a.75.75 0 0 0 0 1.5h7.761a.75.75 0 0 0 0-1.5zM33.805 48.576h5.891a.75.75 0 0 0 0-1.5h-5.891a.75.75 0 0 0 0 1.5zM39.696 51.086h-5.891a.75.75 0 0 0 0 1.5h5.891a.75.75 0 0 0 0-1.5zM36.751 59.731H18.62a.75.75 0 0 0 0 1.5h18.131a.75.75 0 0 0 0-1.5z" fill="#cc0000" opacity="1" data-original="#000000"></path></g></svg>