<?xml version="1.0" encoding="UTF-8"?>
<svg xmlns="http://www.w3.org/2000/svg" width="63" height="61" viewBox="0 0 63 61" fill="none">
  <g clip-path="url(#clip0_629_39905)">
    <path d="M30.5762 58.4531H32.4219V60.2109H30.5762V58.4531Z" fill="#CC0000"></path>
    <path d="M1.96875 60.2109H28.7313V58.4531H3.81445V1.96875H46.2655V51.4219H38.8827V58.4531H34.2684V60.2109H40.1876L48.1112 52.6648V0.210938H1.96875V60.2109ZM44.9604 53.1797L40.7284 57.2102V53.1797H44.9604Z" fill="#CC0000"></path>
    <path d="M42.5742 3.72656H44.4199V5.48438H42.5742V3.72656Z" fill="#CC0000"></path>
    <path d="M42.5742 7.24219H44.4199V9H42.5742V7.24219Z" fill="#CC0000"></path>
    <path d="M61.0312 15.3668V5.69909C61.0312 4.24515 59.7893 3.06226 58.2627 3.06226H54.5713C53.0446 3.06226 51.8027 4.24515 51.8027 5.69909V51.5651L56.417 58.0471L61.0312 51.5651V17.1246H59.1855V48.8097C58.8968 48.7121 58.5862 48.6585 58.2627 48.6585H57.3398V46.9007H55.4941V48.6585H54.5713C54.2478 48.6585 53.9372 48.7122 53.6484 48.8097V11.8513H55.4941V45.1429H57.3398V11.8513H59.1855V15.3668H61.0312ZM54.5713 50.4163H58.2627C58.6898 50.4163 59.049 50.6944 59.1537 51.0701L56.417 54.9146L53.6803 51.0701C53.785 50.6944 54.1442 50.4163 54.5713 50.4163ZM53.6484 10.0935V5.69909C53.6484 5.2144 54.0624 4.82007 54.5713 4.82007H58.2627C58.7716 4.82007 59.1855 5.2144 59.1855 5.69909V10.0935H53.6484Z" fill="#CC0000"></path>
    <path d="M33.3457 31.5294C33.3457 30.0756 32.1038 28.8928 30.5771 28.8928C29.0505 28.8928 27.8086 30.0756 27.8086 31.5294C27.8086 32.9833 29.0505 34.1661 30.5771 34.1661C32.1037 34.1661 33.3457 32.9833 33.3457 31.5294ZM29.6543 31.5294C29.6543 31.0449 30.0683 30.6506 30.5771 30.6506C31.0859 30.6506 31.5 31.0449 31.5 31.5294C31.5 32.0141 31.0861 32.4083 30.5771 32.4083C30.0682 32.4083 29.6543 32.0141 29.6543 31.5294Z" fill="#CC0000"></path>
    <path d="M38.8828 16.588C38.8828 12.2264 35.157 8.67798 30.5771 8.67798C25.9973 8.67798 22.2715 12.2264 22.2715 16.588V17.4669H27.8086V16.588C27.8086 15.1342 29.0506 13.9514 30.5771 13.9514C32.1037 13.9514 33.3457 15.1342 33.3457 16.588C33.3457 18.0418 32.1038 19.2247 30.5771 19.2247C29.0505 19.2247 27.8086 20.4076 27.8086 21.8615V24.4982C27.8086 25.952 29.0506 27.1349 30.5771 27.1349C32.1037 27.1349 33.3457 25.952 33.3457 24.4982V24.0483C36.6397 22.9432 38.8828 19.9676 38.8828 16.588ZM32.1928 22.5466L31.5 22.7165V24.4982C31.5 24.9829 31.0861 25.3771 30.5771 25.3771C30.0682 25.3771 29.6543 24.9829 29.6543 24.4982V21.8615C29.6543 21.3768 30.0683 20.9825 30.5771 20.9825C33.1215 20.9825 35.1914 19.0112 35.1914 16.588C35.1914 14.1649 33.1215 12.1936 30.5771 12.1936C28.3489 12.1936 26.4844 13.7058 26.0555 15.7091H24.1829C24.632 12.7316 27.3283 10.4358 30.5771 10.4358C34.1392 10.4358 37.0371 13.1957 37.0371 16.588C37.0371 19.3972 35.0451 21.8475 32.1928 22.5466Z" fill="#CC0000"></path>
    <path d="M9.35156 13.9514H18.5801V15.7092H9.35156V13.9514Z" fill="#CC0000"></path>
    <path d="M9.35156 27.1348H18.5801V28.8926H9.35156V27.1348Z" fill="#CC0000"></path>
    <path d="M9.35156 22.7405H18.5801V24.4983H9.35156V22.7405Z" fill="#CC0000"></path>
    <path d="M9.35156 18.3458H18.5801V20.1036H9.35156V18.3458Z" fill="#CC0000"></path>
    <path d="M23.6562 46.4705H36.1147V48.2283H23.6562V46.4705Z" fill="#CC0000"></path>
    <path d="M9.35156 50.865H36.1141V52.6228H9.35156V50.865Z" fill="#CC0000"></path>
    <path d="M9.35156 46.4705H21.8099V48.2283H9.35156V46.4705Z" fill="#CC0000"></path>
    <path d="M9.35156 42.0759H36.1141V43.8337H9.35156V42.0759Z" fill="#CC0000"></path>
    <path d="M23.6562 37.6814H36.1146V39.4392H23.6562V37.6814Z" fill="#CC0000"></path>
    <path d="M9.35156 37.6814H21.8101V39.4392H9.35156V37.6814Z" fill="#CC0000"></path>
  </g>
  <defs>
    <clipPath id="clip0_629_39905">
      <rect width="63" height="60" fill="white" transform="translate(0 0.210938)"></rect>
    </clipPath>
  </defs>
</svg>
