<svg xmlns="http://www.w3.org/2000/svg" version="1.1" xmlns:xlink="http://www.w3.org/1999/xlink" width="512" height="512" x="0" y="0" viewBox="0 0 512 512" style="enable-background:new 0 0 512 512" xml:space="preserve" class=""><g><path d="M289.078 422.745v57.624c0 12.508-10.14 22.648-22.648 22.648h65.898c8.104 0 14.673-6.569 14.673-14.673v-7.677l-57.923-57.922zM189.013 422.745l-35.76 35.76M128.505 483.253l-19.764 19.764" style="stroke-width:15;stroke-linecap:round;stroke-linejoin:round;stroke-miterlimit:10;" fill="none" stroke="#cc0000" stroke-width="15" stroke-linecap="round" stroke-linejoin="round" stroke-miterlimit="10" data-original="#000000" opacity="1" class=""></path><path d="M120.555 359.942H79.206c-39.602 0-71.706 32.104-71.706 71.706v56.697c0 8.104 6.569 14.673 14.673 14.673h310.155c8.103 0 14.673-6.569 14.673-14.673v-56.697c0-39.602-32.104-71.706-71.706-71.706h-35.282" style="stroke-width:15;stroke-linecap:round;stroke-linejoin:round;stroke-miterlimit:10;" fill="none" stroke="#cc0000" stroke-width="15" stroke-linecap="round" stroke-linejoin="round" stroke-miterlimit="10" data-original="#000000" opacity="1" class=""></path><path d="M120.555 333.754v72.271c0 5.747 6.553 9.036 11.161 5.601l39.51-29.449M189.342 382.177l24.041 17.92h26.63v-55.898" style="stroke-width:15;stroke-linecap:round;stroke-linejoin:round;stroke-miterlimit:10;" fill="none" stroke="#cc0000" stroke-width="15" stroke-linecap="round" stroke-linejoin="round" stroke-miterlimit="10" data-original="#000000" opacity="1" class=""></path><path d="M159.288 348.974c-2.553 0-5.062-.185-7.527-.511l25.373 43.947c1.4 2.425 4.9 2.425 6.3 0l25.078-43.436h-49.224z" style="stroke-width:15;stroke-linecap:round;stroke-linejoin:round;stroke-miterlimit:10;" fill="none" stroke="#cc0000" stroke-width="15" stroke-linecap="round" stroke-linejoin="round" stroke-miterlimit="10" data-original="#000000" opacity="1" class=""></path><path d="M74.79 230.158c.024-.036.052-.069.076-.104a36.976 36.976 0 0 0-6.541 21.053c0 19.469 14.97 35.432 34.025 37.032v3.897c0 31.446 25.492 56.938 56.938 56.938h57.899c31.446 0 56.938-25.492 56.938-56.938V167.059" style="stroke-width:15;stroke-linecap:round;stroke-linejoin:round;stroke-miterlimit:10;" fill="none" stroke="#cc0000" stroke-width="15" stroke-linecap="round" stroke-linejoin="round" stroke-miterlimit="10" data-original="#000000" opacity="1" class=""></path><path d="M74.79 192v38.158c6.695-9.795 17.95-16.227 30.71-16.227l11.373 28.433c.547 1.369 2.494 1.341 3.003-.043l23.758-64.674a16.162 16.162 0 0 1 15.172-10.59h115.32l10.526-13.794c6.179-8.098 8.74-17.274 8.382-26.139l-38.508-38.508a4.864 4.864 0 0 1-.592-.725 42.717 42.717 0 0 0-1.646-.032h-112.31c-36.002 0-65.188 29.185-65.188 65.188V157" style="stroke-width:15;stroke-linecap:round;stroke-linejoin:round;stroke-miterlimit:10;" fill="none" stroke="#cc0000" stroke-width="15" stroke-linecap="round" stroke-linejoin="round" stroke-miterlimit="10" data-original="#000000" opacity="1" class=""></path><path d="M183.26 220.453c-6.747 6.748-17.687 6.748-24.435 0M253.486 220.453c-6.747 6.748-17.687 6.748-24.435 0M203.629 265.778l10.356-10.356a3.217 3.217 0 0 0 0-4.549l-10.356-10.356v-12.039M176.694 296.367c12.551 12.551 32.899 12.551 45.45 0M445 152.809h44.5c8.284 0 15-6.716 15-15V96.021c0-8.284-6.716-15-15-15h-79.095a22.896 22.896 0 0 1-16.19-6.706l-57.806-57.806a25.694 25.694 0 0 0-18.169-7.526H208.897a2.533 2.533 0 0 0-2.533 2.533v0c0 18.067 14.646 32.713 32.714 32.713h69.883c3.407 0 6.675 1.354 9.085 3.763l17.135 17.135c5.017 5.017 5.017 13.152 0 18.169l-8.981 8.981c-5.017 5.017-13.152 5.017-18.169 0l-10.626-10.626c-11.841-11.841-31.039-11.841-42.88 0h0a4.926 4.926 0 0 0 0 6.965l50.417 50.417a47.03 47.03 0 0 0 33.255 13.775H410M242.304 400.097h.315s0 0 0 0h-30.958c-12.508 0-22.648 10.14-22.648 22.648v57.624c0 12.508 10.14 22.648 22.648 22.648h30.643" style="stroke-width:15;stroke-linecap:round;stroke-linejoin:round;stroke-miterlimit:10;" fill="none" stroke="#cc0000" stroke-width="15" stroke-linecap="round" stroke-linejoin="round" stroke-miterlimit="10" data-original="#000000" opacity="1" class=""></path><path d="M228.599 464.289c0 6.044 4.046 11.133 9.575 12.732-5.598 1.619-9.676 6.818-9.573 12.961.123 7.309 6.392 13.034 13.703 13.034h24.126c12.508 0 22.648-10.14 22.648-22.648v-57.624c0-12.508-10.14-22.648-22.648-22.648h-24.126c-7.31 0-13.579 5.725-13.703 13.034-.104 6.144 3.974 11.342 9.573 12.961-5.528 1.599-9.575 6.689-9.575 12.732s4.046 11.133 9.575 12.732c-5.529 1.601-9.575 6.691-9.575 12.734zM345.27 184.46v11.598M345.27 229.402V241M317 212.73h11.598M361.942 212.73h11.598M156 8.983v9.846M156 47.137v9.846M132 32.983h9.846M170.154 32.983H180" style="stroke-width:15;stroke-linecap:round;stroke-linejoin:round;stroke-miterlimit:10;" fill="none" stroke="#cc0000" stroke-width="15" stroke-linecap="round" stroke-linejoin="round" stroke-miterlimit="10" data-original="#000000" opacity="1" class=""></path></g></svg>