<?xml version="1.0" encoding="UTF-8"?>
<svg xmlns="http://www.w3.org/2000/svg" width="60" height="61" viewBox="0 0 60 61" fill="none">
  <g clip-path="url(#clip0_629_39891)">
    <path d="M59.7267 21.5079C59.4901 20.9431 59.0474 20.5041 58.4807 20.2724L54.478 18.6346C53.9117 18.4029 53.2883 18.4052 52.7234 18.6423C52.1581 18.8795 51.7195 19.3221 51.4874 19.8884L46.9308 31.0253V12.8264C46.9308 12.5902 46.837 12.3632 46.6699 12.1961L34.9452 0.471863C34.7781 0.304779 34.5515 0.210938 34.3153 0.210938H0.891266C0.39917 0.210938 0 0.610107 0 1.1022V7.97919C0 8.47128 0.39917 8.87045 0.891266 8.87045C1.38336 8.87045 1.78207 8.47128 1.78207 7.97919V1.99301H33.4236V12.8264C33.4236 13.3185 33.8228 13.7173 34.3149 13.7173H45.1488V35.3814L41.2202 44.9821C41.1708 45.1029 41.1484 45.2334 41.1552 45.3638L41.5746 53.7514C41.5919 54.0966 41.8071 54.4005 42.1271 54.5315C42.236 54.5763 42.3505 54.5978 42.4644 54.5978C42.6842 54.5978 42.9002 54.5168 43.0678 54.3625L45.1483 52.4473V58.4289H1.78207V11.5438C1.78207 11.0517 1.38336 10.6525 0.891266 10.6525C0.39917 10.6525 0 11.0517 0 11.5438V59.3197C0 59.8118 0.39917 60.2109 0.891266 60.2109H46.0396C46.5317 60.2109 46.9308 59.8118 46.9308 59.3197V50.8066L49.2467 48.6748C49.3428 48.586 49.4179 48.4775 49.4678 48.3567L53.5075 38.4827C53.6938 38.0273 53.4755 37.5068 53.02 37.3205C52.565 37.1342 52.0445 37.3521 51.8582 37.8075L48.1554 46.8571L43.2069 44.8324L50.8109 26.2485L55.7593 28.2732L53.1358 34.6851C52.9495 35.1406 53.1674 35.6611 53.6234 35.8474C54.0788 36.0337 54.5988 35.8158 54.7852 35.3603L59.735 23.263C59.9666 22.6963 59.9638 22.0728 59.7267 21.5079ZM35.2061 3.25278L43.8885 11.9356H35.2061V3.25278ZM43.0051 46.6749L47.0082 48.3127L43.2596 51.7638L43.0051 46.6749ZM58.0852 22.5878L56.434 26.6234L51.4856 24.5988L53.1367 20.5631C53.1885 20.4372 53.2864 20.3388 53.4123 20.2862C53.5387 20.2331 53.6774 20.2321 53.8033 20.2839L57.8059 21.9218C57.9318 21.973 58.0302 22.071 58.0829 22.1969C58.136 22.3232 58.1369 22.4619 58.0852 22.5878Z" fill="#CC0000"></path>
    <path d="M29.6552 9.93933H18.6061C18.114 9.93933 17.7148 10.338 17.7148 10.8301C17.7148 11.3222 18.114 11.7214 18.6061 11.7214H29.6552C30.1472 11.7214 30.5464 11.3222 30.5464 10.8301C30.5464 10.338 30.1472 9.93933 29.6552 9.93933Z" fill="#CC0000"></path>
    <path d="M6.89127 29.4831H13.9363C14.4284 29.4831 14.8271 29.0839 14.8271 28.5918V22.2811L16.1569 20.5883C16.4608 20.2015 16.3935 19.6412 16.0067 19.3372C15.6199 19.0333 15.0596 19.1005 14.7557 19.4874L13.8374 20.656H6.89127C6.39917 20.656 6 21.0547 6 21.5468V28.5918C6 29.0839 6.39917 29.4831 6.89127 29.4831ZM7.78208 22.4381H12.4371L11.0189 24.2431L10.0274 23.2511C9.67951 22.9032 9.11508 22.9032 8.76718 23.2511C8.41928 23.5994 8.41928 24.1634 8.76718 24.5113L10.4692 26.2133C10.6367 26.3808 10.8637 26.4742 11.099 26.4742C11.1169 26.4742 11.1347 26.4737 11.1526 26.4728C11.4067 26.4577 11.6424 26.3341 11.7999 26.1336L13.045 24.5493V27.701H7.78208V22.4381Z" fill="#CC0000"></path>
    <path d="M39.1586 22.0398H20.0905C19.5984 22.0398 19.1992 22.439 19.1992 22.9311C19.1992 23.4232 19.5984 23.8223 20.0905 23.8223H39.1586C39.6512 23.8223 40.0499 23.4232 40.0499 22.9311C40.0499 22.439 39.6512 22.0398 39.1586 22.0398Z" fill="#CC0000"></path>
    <path d="M20.0905 28.0992H35.4164C35.9085 28.0992 36.3072 27.7 36.3072 27.2079C36.3072 26.7159 35.9085 26.3171 35.4164 26.3171H20.0905C19.5984 26.3171 19.1992 26.7159 19.1992 27.2079C19.1992 27.7 19.5984 28.0992 20.0905 28.0992Z" fill="#CC0000"></path>
    <path d="M6 40.2941C6 40.7862 6.39917 41.1854 6.89127 41.1854H13.9363C14.4284 41.1854 14.8271 40.7862 14.8271 40.2941V33.9834L16.1569 32.2905C16.4608 31.9037 16.3935 31.3434 16.0067 31.0395C15.6199 30.7355 15.0596 30.8028 14.7557 31.1896L13.8374 32.3583H6.89127C6.39917 32.3583 6 32.757 6 33.2491V40.2941ZM7.78208 34.1404H12.4371L11.0189 35.9453L10.0274 34.9534C9.67951 34.6055 9.11508 34.6055 8.76718 34.9534C8.41928 35.3017 8.41928 35.8657 8.76718 36.2136L10.4692 37.9156C10.6367 38.0831 10.8637 38.1765 11.099 38.1765C11.1169 38.1765 11.1347 38.176 11.1526 38.1751C11.4067 38.16 11.6424 38.0364 11.7999 37.8359L13.045 36.2516V39.4033H7.78208V34.1404Z" fill="#CC0000"></path>
    <path d="M39.1586 33.7422H20.0905C19.5984 33.7422 19.1992 34.1414 19.1992 34.6335C19.1992 35.1256 19.5984 35.5243 20.0905 35.5243H39.1586C39.6512 35.5243 40.0499 35.1256 40.0499 34.6335C40.0499 34.1414 39.6512 33.7422 39.1586 33.7422Z" fill="#CC0000"></path>
    <path d="M20.0905 39.8016H25.7933C26.2854 39.8016 26.6841 39.4024 26.6841 38.9103C26.6841 38.4182 26.2854 38.0195 25.7933 38.0195H20.0905C19.5984 38.0195 19.1992 38.4182 19.1992 38.9103C19.1992 39.4024 19.5984 39.8016 20.0905 39.8016Z" fill="#CC0000"></path>
    <path d="M6 51.9963C6 52.4884 6.39917 52.8876 6.89127 52.8876H13.9362C14.4283 52.8876 14.8271 52.4884 14.8271 51.9963V44.9518C14.8271 44.4597 14.4283 44.0605 13.9362 44.0605H6.89127C6.39917 44.0605 6 44.4597 6 44.9518V51.9963ZM7.78207 45.8426H13.045V51.1051H7.78207V45.8426Z" fill="#CC0000"></path>
    <path d="M40.0499 46.3356C40.0499 45.8435 39.6512 45.4443 39.1586 45.4443H20.0905C19.5984 45.4443 19.1992 45.8435 19.1992 46.3356C19.1992 46.8277 19.5984 47.2264 20.0905 47.2264H39.1586C39.6512 47.2264 40.0499 46.8277 40.0499 46.3356Z" fill="#CC0000"></path>
    <path d="M20.0905 49.7213C19.5984 49.7213 19.1992 50.1205 19.1992 50.6126C19.1992 51.1047 19.5984 51.5038 20.0905 51.5038H36.3072C36.7998 51.5038 37.1985 51.1047 37.1985 50.6126C37.1985 50.1205 36.7998 49.7213 36.3072 49.7213H20.0905Z" fill="#CC0000"></path>
  </g>
  <defs>
    <clipPath id="clip0_629_39891">
      <rect width="60" height="60" fill="white" transform="translate(0 0.210938)"></rect>
    </clipPath>
  </defs>
</svg>
