<svg xmlns="http://www.w3.org/2000/svg" version="1.1" xmlns:xlink="http://www.w3.org/1999/xlink" width="512" height="512" x="0" y="0" viewBox="0 0 512 512" style="enable-background:new 0 0 512 512" xml:space="preserve"><g><path d="M140.58 119.54H77.53c-5.93 0-10.76 4.83-10.76 10.76v63.05c0 5.93 4.83 10.76 10.76 10.76h63.05c5.93 0 10.76-4.83 10.76-10.76V130.3c.01-5.93-4.82-10.76-10.76-10.76zm-1.23 72.58H78.77v-60.58h60.58zm-53.1-26.03c-2.34-2.34-2.34-6.14 0-8.49 2.34-2.34 6.14-2.34 8.49 0l8.12 8.12 20.52-20.52c2.34-2.34 6.14-2.34 8.49 0 2.34 2.34 2.34 6.14 0 8.49l-24.76 24.76a5.991 5.991 0 0 1-8.48 0zm86.83-27.69c0-3.31 2.69-6 6-6h121.16c3.31 0 6 2.69 6 6s-2.69 6-6 6H179.08c-3.31 0-6-2.69-6-6zm0 40.62c0-3.31 2.69-6 6-6h77.74c3.31 0 6 2.69 6 6s-2.69 6-6 6h-77.74c-3.31 0-6-2.68-6-6zm-32.5 46.45H77.53c-5.93 0-10.76 4.83-10.76 10.76v63.05c0 5.93 4.83 10.76 10.76 10.76h63.05c5.93 0 10.76-4.83 10.76-10.76v-63.05c.01-5.93-4.82-10.76-10.76-10.76zm-1.23 72.57H78.77v-60.58h60.58zm33.73-53.72c0-3.31 2.69-6 6-6h121.16c3.31 0 6 2.69 6 6s-2.69 6-6 6H179.08c-3.31 0-6-2.68-6-6zm0 40.63c0-3.31 2.69-6 6-6h77.74c3.31 0 6 2.69 6 6s-2.69 6-6 6h-77.74c-3.31 0-6-2.69-6-6zm-32.5 46.44H77.53c-5.93 0-10.76 4.83-10.76 10.76v63.05c0 5.93 4.83 10.76 10.76 10.76h63.05c5.93 0 10.76-4.83 10.76-10.76v-63.05c.01-5.93-4.82-10.76-10.76-10.76zm-1.23 72.58H78.77v-60.58h60.58zm160.89-47.73H179.08c-3.31 0-6-2.69-6-6s2.69-6 6-6h121.16c3.31 0 6 2.69 6 6s-2.68 6-6 6zm-37.42 34.63c0 3.31-2.69 6-6 6h-77.74c-3.31 0-6-2.69-6-6s2.69-6 6-6h77.74c3.31 0 6 2.69 6 6zm232.85-198.29c-2.78-10.6-9.5-19.43-18.94-24.88-19.1-11.03-43.86-4.41-55.2 14.74l-59.03 99.75V76.77c0-13.34-10.85-24.2-24.2-24.2h-87.34V35.69c0-3.31-2.69-6-6-6H132.54c-3.31 0-6 2.69-6 6v16.89H39.2c-13.34 0-24.2 10.85-24.2 24.2v381.35c0 13.34 10.85 24.2 24.2 24.2h299.11c13.34 0 24.2-10.85 24.2-24.2v-38.27h-1.16l21.84-14.94-.01-.01c.71-.48 1.33-1.11 1.78-1.89L491.5 222.99c5.43-9.17 6.91-19.97 4.17-30.41zm-24.94-14.49c6.64 3.83 11.37 10.06 13.33 17.53 1.92 7.31.89 14.86-2.89 21.25l-1.77 2.98c-15-15.65-31.15-25.17-48.98-28.88l1.43-2.42c8.01-13.52 25.45-18.21 38.88-10.46zM324.34 378.21c11.93 10.86 25.64 18.82 41.45 24.06l-50.14 34.3zm3.27-13.5 96.29-162.7c7.61 1.13 14.9 3.48 21.92 7.07L344.71 378.9c-6.14-4.05-11.83-8.77-17.1-14.19zM138.54 41.69h100.43v31.8H138.54zM350.5 458.12c0 6.73-5.47 12.2-12.2 12.2H39.2c-6.73 0-12.2-5.47-12.2-12.2V76.77c0-6.73 5.47-12.2 12.2-12.2h87.34v14.92c0 3.31 2.69 6 6 6h112.43c3.31 0 6-2.69 6-6V64.57h87.34c6.73 0 12.2 5.47 12.2 12.2v225.7l-35.51 60c-.4.68-.64 1.42-.75 2.17h-.02l-12.47 83.76a6.01 6.01 0 0 0 2.75 5.97 6.002 6.002 0 0 0 6.57-.14l39.42-26.97zm26.4-65.05c-7.8-2.05-15.04-4.77-21.81-8.16l100.96-169.57c5.82 4.16 11.47 9.24 16.98 15.29zM86.25 272.01c-2.34-2.34-2.34-6.14 0-8.49 2.34-2.34 6.14-2.34 8.49 0l8.12 8.12 20.52-20.52c2.34-2.34 6.14-2.34 8.49 0a6 6 0 0 1 0 8.48l-24.76 24.76a5.991 5.991 0 0 1-8.48 0zm2.4 113.42 11.9-11.77-11.84-11.84a6 6 0 0 1 0-8.48c2.34-2.34 6.14-2.34 8.49 0l11.88 11.88 11.95-11.82c2.36-2.33 6.15-2.31 8.48.05s2.31 6.16-.05 8.49l-11.9 11.77 11.84 11.84a6 6 0 0 1-4.24 10.24c-1.53 0-3.07-.59-4.24-1.76l-11.88-11.88-11.95 11.82a5.956 5.956 0 0 1-4.22 1.73 6.002 6.002 0 0 1-4.22-10.27z" fill="#cc0000" opacity="1" data-original="#000000"></path></g></svg>