<svg xmlns="http://www.w3.org/2000/svg" version="1.1" xmlns:xlink="http://www.w3.org/1999/xlink" width="512" height="512" x="0" y="0" viewBox="0 0 512 512" style="enable-background:new 0 0 512 512" xml:space="preserve"><g><path d="M158.595 44.756h-54.367c-11.05 0-20.007 8.958-20.007 20.007v13.924M427.776 78.358V64.763c0-11.05-8.958-20.007-20.007-20.007l-53.371-.021M24.289 174.26v15.95c0 5.21 4.22 9.43 9.42 9.43h36.89c1.11 0 2.19.4 3.04 1.11l27.12 22.9c.76.65 1.73 1 2.73 1 2.34 0 4.24-1.9 4.24-4.23v-16.07c0-2.6 2.11-4.71 4.72-4.71h30.28c5.21 0 9.43-4.22 9.43-9.43V90.42c0-5.21-4.22-9.43-9.43-9.43H33.709c-5.2 0-9.42 4.22-9.42 9.43v48.84M95.704 325.295h0a19.335 19.335 0 0 0 17.083.009h0a39.252 39.252 0 0 0 21.722-31.35l.838-8.436c1.832-18.434-12.635-34.438-31.14-34.448h0c-18.504-.009-32.955 15.98-31.105 34.416l.847 8.437a39.36 39.36 0 0 0 21.755 31.372zM61.959 397.48v58.169c0 3.8-1.53 7.24-4.02 9.74-2.48 2.5-5.91 4.06-9.71 4.09-7.68.07-13.94-6.15-13.94-13.83V436.98" style="stroke-width:15;stroke-linecap:round;stroke-linejoin:round;stroke-miterlimit:10;" fill="none" stroke="#cc0000" stroke-width="15" stroke-linecap="round" stroke-linejoin="round" stroke-miterlimit="10" data-original="#000000" opacity="1"></path><path d="M34.289 401.98v-21.5c0-15.28 10.93-28.36 25.96-31.07l26.53-4.79c3.02 8.08 10.23 12.11 17.44 12.11 7.22 0 14.43-4.03 17.44-12.11l26.54 4.79c15.03 2.71 25.96 15.79 25.96 31.07v75.169c0 7.64-6.19 13.83-13.82 13.83h-.13c-7.59-.06-13.72-6.23-13.72-13.83V397.48M146.487 504.49v-48.842M61.96 455.647l-.001 48.85M104.223 480.606v23.891M86.783 344.622l3.769-20.924M121.663 344.622l-3.77-20.924M416.292 325.295h0a19.335 19.335 0 0 1-17.083.009h0a39.252 39.252 0 0 1-21.722-31.35l-.838-8.436c-1.832-18.434 12.635-34.438 31.14-34.448h0c18.504-.009 32.955 15.98 31.105 34.416l-.847 8.437a39.36 39.36 0 0 1-21.755 31.372zM365.509 455.393v-57.915 58.169c0 7.599-6.128 13.775-13.726 13.836h0c-7.684.061-13.946-6.151-13.946-13.836v-75.17c0-15.274 10.934-28.357 25.965-31.068l26.531-4.787h0c6.023 16.144 28.858 16.144 34.881 0h0l26.531 4.787c15.031 2.712 25.965 15.795 25.965 31.068v75.171c0 7.684-6.262 13.897-13.946 13.836h0c-7.598-.06-13.726-6.237-13.726-13.836l.001-58.169M365.509 504.492v-48.844M450.036 455.647v48.852M407.773 480.606V504.5M390.333 344.622l3.769-20.924M425.212 344.622l-3.769-20.924M246.029 234.829h0a22.62 22.62 0 0 0 19.99.01h0a45.933 45.933 0 0 0 25.419-36.685l.981-9.872c2.144-21.572-14.786-40.3-36.44-40.311h0c-21.654-.011-38.564 18.699-36.399 40.273l.991 9.873a46.062 46.062 0 0 0 25.458 36.712zM174.159 407.155c0 8.992 7.327 16.262 16.319 16.19h.001c8.892-.07 16.063-7.299 16.063-16.191l-.001-94.88" style="stroke-width:15;stroke-linecap:round;stroke-linejoin:round;stroke-miterlimit:10;" fill="none" stroke="#cc0000" stroke-width="15" stroke-linecap="round" stroke-linejoin="round" stroke-miterlimit="10" data-original="#000000" opacity="1"></path><path d="M174.159 380.48v-88.1c0-17.87 12.8-33.18 30.38-36.36l31.05-5.6c3.53 9.45 11.97 14.18 20.41 14.18s16.88-4.73 20.41-14.18l31.04 5.6c17.56 3.17 30.35 18.44 30.39 36.27M337.839 380.48v-53.19M305.455 312.275v94.88c0 8.892 7.171 16.12 16.063 16.19h0c8.992.071 16.319-7.198 16.319-16.19M255.998 409.552v94.945M276.407 250.423l-2.386-19.483M235.589 250.423l2.386-19.483M321.616 58.817v41.924a10.4 10.4 0 0 1-6.717 9.726h0a164.916 164.916 0 0 1-116.805 0h0a10.4 10.4 0 0 1-6.717-9.726V59.147" style="stroke-width:15;stroke-linecap:round;stroke-linejoin:round;stroke-miterlimit:10;" fill="none" stroke="#cc0000" stroke-width="15" stroke-linecap="round" stroke-linejoin="round" stroke-miterlimit="10" data-original="#000000" opacity="1"></path><path d="m316.969 30.32 37.43 14.41-95.51 36.79c-1.54.6-3.25.6-4.79 0l-95.5-36.79 95.5-36.78c1.54-.6 3.25-.6 4.79 0l25.4 9.78M71.643 122.843c0-.785.054-1.557.16-2.312 1.14-8.171 8.236-14.434 16.76-14.262 8.623.174 15.766 7.08 16.213 15.693.495 9.545-7.107 17.46-16.555 17.46v11.335M88.221 175.42h0M487.711 190.213c0 5.205-4.222 9.427-9.427 9.427h-36.883a4.728 4.728 0 0 0-3.041 1.113l-27.124 22.894a4.236 4.236 0 0 1-6.965-3.232V204.35a4.714 4.714 0 0 0-4.717-4.71h-30.285c-5.205 0-9.427-4.222-9.427-9.427V90.416c0-5.205 4.222-9.427 9.427-9.427h109.016c5.205 0 9.427 4.222 9.427 9.427v99.797z" style="stroke-width:15;stroke-linecap:round;stroke-linejoin:round;stroke-miterlimit:10;" fill="none" stroke="#cc0000" stroke-width="15" stroke-linecap="round" stroke-linejoin="round" stroke-miterlimit="10" data-original="#000000" opacity="1"></path><path d="M407.198 122.843c0-.785.054-1.557.16-2.312 1.14-8.171 8.236-14.434 16.76-14.262 8.623.174 15.766 7.08 16.213 15.693.495 9.545-7.107 17.46-16.555 17.46v11.335M423.776 175.42h0M206.541 407.155v97.335M305.455 407.155v97.335" style="stroke-width:15;stroke-linecap:round;stroke-linejoin:round;stroke-miterlimit:10;" fill="none" stroke="#cc0000" stroke-width="15" stroke-linecap="round" stroke-linejoin="round" stroke-miterlimit="10" data-original="#000000" opacity="1"></path></g></svg>