<?xml version="1.0" encoding="UTF-8"?>
<svg xmlns="http://www.w3.org/2000/svg" width="50" height="50" viewBox="0 0 50 50" fill="none">
  <g clip-path="url(#clip0_629_27374)">
    <path d="M49.2891 13.1295C49.289 13.1295 49.289 13.1295 49.2889 13.1295L49.2873 13.1278L46.0599 12.6674C45.6063 12.6028 45.2909 12.1827 45.3556 11.7291C45.3866 11.5111 45.503 11.3144 45.6791 11.1823L48.2875 9.226C48.6541 8.95107 48.7284 8.43109 48.4535 8.06449L45.4667 4.08216C45.1918 3.71555 44.6718 3.6413 44.3052 3.91623L41.6976 5.87255C41.3326 6.14955 40.8122 6.0782 40.5352 5.71315C40.4007 5.53591 40.343 5.31201 40.3752 5.09184L40.8364 1.8645C40.9015 1.41089 40.5865 0.990563 40.133 0.925436C40.1327 0.925436 40.1324 0.925332 40.1321 0.925332L35.2073 0.221787C34.7537 0.15666 34.3332 0.471512 34.2681 0.925125C34.2681 0.925228 34.2681 0.925228 34.2681 0.925332L33.8068 4.15268C33.7422 4.60629 33.3221 4.92166 32.8685 4.85705C32.6505 4.82604 32.4538 4.70958 32.3217 4.53349L30.3662 1.92506C30.0913 1.55846 29.5713 1.48421 29.2047 1.75913L26.7116 3.63C25.5837 3.51011 24.4463 3.51011 23.3183 3.63C15.9317 4.47427 10.1392 10.365 9.41919 17.7648C9.39678 17.9996 9.38849 18.2327 9.37687 18.4658H9.12798C8.73431 18.4666 8.39529 18.7439 8.31658 19.1296L7.74329 21.8558L5.44681 20.272C5.11723 20.0446 4.67213 20.0851 4.38901 20.3682L1.90005 22.8572C1.61735 23.1402 1.5769 23.5847 1.80381 23.9142L3.38015 26.2065L0.653085 26.7798C0.271652 26.8634 0.000148807 27.2015 0.000978459 27.592V30.9106C0.000771046 31.303 0.275697 31.6419 0.659722 31.7228L3.38679 32.2961L1.81045 34.5885C1.58354 34.9179 1.62398 35.3624 1.90669 35.6454L4.39564 38.1344C4.67876 38.4175 5.12387 38.4581 5.45345 38.2306L7.74578 36.6501L8.31907 39.3772C8.39778 39.7629 8.7368 40.0402 9.13047 40.0409H12.4491C12.8415 40.0411 13.1804 39.7662 13.2613 39.3822L13.8346 36.6551L16.1269 38.2315C16.4564 38.4584 16.9009 38.4179 17.1839 38.1352L18.4723 36.8426V39.2071C18.4761 40.3874 19.1084 41.4762 20.1316 42.0644V46.674C20.1316 48.5068 21.6175 49.9926 23.4503 49.9926H26.7689C28.6017 49.9926 30.0875 48.5068 30.0875 46.674V42.0644C31.1107 41.4762 31.743 40.3874 31.7468 39.2071V35.9234C31.7693 34.5417 32.4921 33.2661 33.6658 32.5367C34.3543 32.0901 35.0072 31.5907 35.6188 31.0434L34.512 29.8072C33.965 30.2975 33.3805 30.7444 32.7639 31.1437C31.1166 32.1777 30.1081 33.9785 30.0875 35.9234V39.2071C30.0875 40.1236 29.3446 40.8664 28.4282 40.8664H21.791C20.8745 40.8664 20.1316 40.1236 20.1316 39.2071V35.8545C20.1125 33.9464 19.1199 32.1804 17.5 31.1719C10.9243 27.0401 8.94307 18.3599 13.0749 11.7842C15.6386 7.70431 20.1127 5.22106 24.9312 5.20385C24.9188 5.2334 24.908 5.26358 24.8988 5.29428C24.868 5.51206 24.9251 5.73327 25.0573 5.90905L27.0128 8.51665C27.219 8.78348 27.2388 9.14998 27.0626 9.43756C26.8929 9.7269 26.5649 9.88474 26.2329 9.83662L23.0056 9.37533C22.552 9.31031 22.1316 9.62527 22.0665 10.0788C22.0665 10.0791 22.0664 10.0794 22.0664 10.0797L21.362 15.007C21.297 15.4605 21.612 15.8809 22.0655 15.9461C22.0658 15.9461 22.0661 15.9462 22.0664 15.9462L25.2937 16.4075C25.7474 16.4721 26.0627 16.8922 25.9981 17.3458C25.9671 17.5638 25.8506 17.7604 25.6746 17.8925L23.067 19.848C22.7004 20.123 22.6261 20.6429 22.901 21.0095L25.8878 24.9919C26.1627 25.3585 26.6827 25.4327 27.0493 25.1578L29.6577 23.2023C30.0246 22.9279 30.5446 23.0029 30.819 23.3699C30.9503 23.5455 31.0068 23.766 30.976 23.983L30.5156 27.2104C30.4504 27.6639 30.7653 28.0844 31.2189 28.1495C31.219 28.1495 31.219 28.1495 31.2191 28.1495L36.1472 28.8539C36.186 28.8589 36.2251 28.8614 36.2642 28.8614C36.6773 28.8619 37.0277 28.5584 37.0864 28.1495L37.5469 24.9222C37.6115 24.4686 38.0316 24.1532 38.4852 24.2178C38.7032 24.2488 38.8998 24.3653 39.0319 24.5414L40.9883 27.149C41.2632 27.5156 41.7832 27.5898 42.1498 27.3149L46.1321 24.3281C46.4987 24.0532 46.573 23.5332 46.298 23.1666L44.3425 20.559C44.1373 20.2918 44.1175 19.9259 44.2928 19.6381C44.4588 19.3449 44.7898 19.1861 45.1224 19.2399L48.3498 19.7004C48.8033 19.7655 49.2238 19.4505 49.2889 18.997C49.2889 18.9969 49.2889 18.9969 49.2889 18.9968L49.9925 14.0687C50.0576 13.6151 49.7428 13.1946 49.2891 13.1295ZM21.791 42.5257H28.4282V44.185H21.791V42.5257ZM21.791 45.8443H28.4282V46.674C28.4282 47.5904 27.6853 48.3333 26.7689 48.3333H23.4503C22.5338 48.3333 21.791 47.5904 21.791 46.674V45.8443ZM15.1861 31.537C15.6391 31.9074 16.1124 32.2524 16.604 32.5699C17.3879 33.0653 17.978 33.8148 18.2757 34.693L16.4961 36.4693L14.7729 35.2812C14.0184 34.7612 12.9851 34.9514 12.465 35.706C12.3404 35.887 12.2529 36.0909 12.2076 36.3058L11.7729 38.3775H9.80083L9.36609 36.3092C9.17734 35.4124 8.29739 34.8384 7.40064 35.0271C7.18566 35.0723 6.98177 35.1599 6.8008 35.2845L5.07679 36.4693L3.56516 34.961L4.75239 33.2386C5.2729 32.4844 5.08332 31.451 4.32906 30.9305C4.14799 30.8056 3.9439 30.7178 3.7286 30.6725L1.66028 30.2369V28.2657L3.7286 27.8301C4.62504 27.64 5.19771 26.7592 5.00762 25.8627C4.9625 25.65 4.87612 25.4483 4.75322 25.269L3.56516 23.5416L5.07679 22.0333L6.80163 23.2214C7.55651 23.7409 8.58974 23.55 9.10921 22.7952C9.23365 22.6144 9.32098 22.4107 9.36609 22.1959L9.51128 21.5057C9.64423 22.4616 9.8644 23.4033 10.1692 24.319C7.43932 24.6445 5.49016 27.1214 5.81559 29.8512C6.14102 32.5811 8.61795 34.5303 11.3478 34.2048C12.9911 34.0088 14.4297 33.009 15.1861 31.537ZM13.8976 30.368C13.2781 32.0901 11.38 32.9838 9.65792 32.3644C7.93587 31.7448 7.04213 29.8467 7.66157 28.1246C8.13551 26.8073 9.38631 25.9298 10.7863 25.9327C10.7971 25.9327 10.8071 25.9327 10.8179 25.9327C11.5808 27.5778 12.6228 29.0783 13.8976 30.368ZM47.7591 17.9382L45.3531 17.5947C43.9922 17.4003 42.7316 18.346 42.5372 19.7068C42.4439 20.3602 42.614 21.0241 43.0101 21.5521L44.4678 23.496L41.8129 25.4872L40.3544 23.5441C39.5297 22.4443 37.9697 22.2212 36.87 23.0459C36.3419 23.4419 35.9927 24.0314 35.8992 24.6849L35.5632 27.0942L32.2786 26.6246L32.6221 24.2186C32.8169 22.8579 31.8717 21.5968 30.511 21.4021C29.8571 21.3084 29.193 21.4785 28.6646 21.8749L26.7207 23.3326L24.7296 20.6777L26.6726 19.2192C27.7724 18.3945 27.9955 16.8344 27.1708 15.7347C26.7749 15.2066 26.1853 14.8575 25.5319 14.7639L23.1259 14.4204L23.5954 11.1359L26.0014 11.4793C27.3622 11.6742 28.6232 10.729 28.818 9.36828C28.9116 8.71441 28.7416 8.05028 28.3452 7.52189L26.8825 5.57636L29.5374 3.5852L30.9959 5.52907C31.8206 6.62888 33.3807 6.85195 34.4804 6.02728C35.0084 5.63132 35.3576 5.04175 35.4512 4.3883L35.7946 1.98231L39.0792 2.45106L38.7358 4.85705C38.5414 6.21789 39.487 7.47854 40.8478 7.67289C41.5013 7.76623 42.1651 7.59615 42.6932 7.19999L44.6371 5.74229L46.6282 8.39718L44.6844 9.8557C43.5846 10.6804 43.3615 12.2404 44.1862 13.3401C44.5821 13.8682 45.1717 14.2174 45.8251 14.3109L48.2311 14.6544L47.7591 17.9382Z" fill="#CC0000"></path>
    <path d="M35.6763 7.89954C32.0107 7.89954 29.0391 10.8711 29.0391 14.5368C29.0391 18.2024 32.0107 21.174 35.6763 21.174C39.3419 21.174 42.3135 18.2024 42.3135 14.5368C42.3093 10.8728 39.3402 7.90358 35.6763 7.89954ZM35.6763 19.5147C32.927 19.5147 30.6984 17.286 30.6984 14.5368C30.6984 11.7875 32.927 9.55884 35.6763 9.55884C38.4255 9.55884 40.6542 11.7875 40.6542 14.5368C40.651 17.2847 38.4242 19.5114 35.6763 19.5147Z" fill="#CC0000"></path>
    <path d="M25.9396 36.7181H24.2803V39.2071H25.9396V36.7181Z" fill="#CC0000"></path>
    <path d="M21.4805 28.5702C16.359 26.5695 13.8291 20.7957 15.8299 15.6742C16.6052 13.6897 17.9966 12.0062 19.7997 10.8712L18.9128 9.46747C13.4852 12.8868 11.8571 20.0586 15.2764 25.4862C16.6006 27.5882 18.564 29.2103 20.8782 30.1142C22.9266 30.899 24.2793 32.8653 24.2798 35.0589H25.9391C25.9417 32.1808 24.1681 29.5997 21.4805 28.5702Z" fill="#CC0000"></path>
    <path d="M46.6806 30.9106H40.873V32.5699H46.6806V30.9106Z" fill="#CC0000"></path>
    <path d="M40.5748 35.2507L39.5127 36.5255L44.491 40.6731L45.5531 39.3982L40.5748 35.2507Z" fill="#CC0000"></path>
    <path d="M37.5548 37.5478H35.8955V43.3554H37.5548V37.5478Z" fill="#CC0000"></path>
    <path d="M7.48539 12.6827L0.848633 14.3417L1.25081 15.9506L7.88757 14.2915L7.48539 12.6827Z" fill="#CC0000"></path>
    <path d="M3.19047 4.5175L2.22656 5.867L8.03366 10.0148L8.99757 8.66533L3.19047 4.5175Z" fill="#CC0000"></path>
    <path d="M10.9425 0.00689841L9.33496 0.417908L11.0318 7.05461L12.6393 6.6436L10.9425 0.00689841Z" fill="#CC0000"></path>
  </g>
  <defs>
    <clipPath id="clip0_629_27374">
      <rect width="50" height="50" fill="white" transform="translate(0.000976562)"></rect>
    </clipPath>
  </defs>
</svg>
