<?xml version="1.0" encoding="UTF-8"?>
<svg xmlns="http://www.w3.org/2000/svg" width="50" height="50" viewBox="0 0 50 50" fill="none">
  <g clip-path="url(#clip0_629_27320)">
    <path d="M26.6143 20.4332C28.326 20.4332 29.9993 19.9257 31.4226 18.9748C32.8459 18.0239 33.9553 16.6722 34.6104 15.0908C35.2655 13.5094 35.437 11.7693 35.1031 10.0904C34.7692 8.41155 33.945 6.86939 32.7347 5.65896C31.5244 4.44852 29.9823 3.62418 28.3035 3.29016C26.6246 2.95614 24.8845 3.12745 23.303 3.78243C21.7215 4.43741 20.3698 5.54665 19.4188 6.96986C18.4677 8.39307 17.96 10.0663 17.96 11.7781C17.9625 14.0726 18.8751 16.2725 20.4976 17.895C22.12 19.5176 24.3197 20.4304 26.6143 20.4332ZM21.9182 17.3437C21.9482 16.6374 22.2497 15.9699 22.7598 15.4804C23.2698 14.9909 23.9491 14.717 24.6561 14.716H28.5728C29.2797 14.7171 29.9589 14.991 30.4689 15.4805C30.9788 15.97 31.2803 16.6375 31.3103 17.3437C29.9987 18.4566 28.3344 19.0675 26.6143 19.0675C24.8941 19.0675 23.2298 18.4566 21.9182 17.3437ZM26.6143 4.49214C27.9649 4.48971 29.2895 4.86339 30.4398 5.57133C31.59 6.27927 32.5204 7.2935 33.1267 8.50039C33.733 9.70728 33.9913 11.0592 33.8727 12.4046C33.754 13.75 33.2631 15.0358 32.4549 16.1179C32.1757 15.3101 31.6519 14.6093 30.9562 14.1128C30.2606 13.6163 29.4275 13.3487 28.5728 13.3472H24.6561C23.8013 13.3487 22.9682 13.6162 22.2725 14.1127C21.5768 14.6093 21.0529 15.3101 20.7736 16.1179C19.9656 15.0357 19.4748 13.75 19.3562 12.4046C19.2376 11.0593 19.4959 9.70744 20.1022 8.50061C20.7085 7.29377 21.6389 6.27956 22.789 5.57159C23.9391 4.86363 25.2637 4.48985 26.6143 4.49214Z" fill="#CC0000"></path>
    <path d="M26.6143 12.1875C27.331 12.1867 28.0181 11.9016 28.5249 11.3947C29.0316 10.8879 29.3167 10.2007 29.3174 9.48401V8.68909C29.3174 7.97217 29.0326 7.28462 28.5257 6.77769C28.0187 6.27075 27.3312 5.98596 26.6143 5.98596C25.8973 5.98596 25.2098 6.27075 24.7029 6.77769C24.1959 7.28462 23.9111 7.97217 23.9111 8.68909V9.4844C23.912 10.2011 24.197 10.8881 24.7038 11.3949C25.2105 11.9016 25.8976 12.1867 26.6143 12.1875ZM25.2783 8.6887C25.2783 8.33439 25.4191 7.99458 25.6696 7.74405C25.9201 7.49351 26.2599 7.35276 26.6143 7.35276C26.9686 7.35276 27.3084 7.49351 27.5589 7.74405C27.8094 7.99458 27.9502 8.33439 27.9502 8.6887V9.4844C27.9502 9.83872 27.8094 10.1785 27.5589 10.4291C27.3084 10.6796 26.9686 10.8203 26.6143 10.8203C26.2599 10.8203 25.9201 10.6796 25.6696 10.4291C25.4191 10.1785 25.2783 9.83872 25.2783 9.4844V8.6887Z" fill="#CC0000"></path>
    <path d="M9.18379 42.3828H5.37207C4.77637 42.3828 4.20507 42.6195 3.78384 43.0407C3.36262 43.4619 3.12598 44.0332 3.12598 44.6289C3.12598 45.2246 3.36262 45.7959 3.78384 46.2171C4.20507 46.6384 4.77637 46.875 5.37207 46.875H9.18379C9.77949 46.875 10.3508 46.6384 10.772 46.2171C11.1932 45.7959 11.4299 45.2246 11.4299 44.6289C11.4299 44.0332 11.1932 43.4619 10.772 43.0407C10.3508 42.6195 9.77949 42.3828 9.18379 42.3828ZM9.18379 45.5078H5.37207C5.13897 45.5078 4.91542 45.4152 4.75059 45.2504C4.58576 45.0856 4.49316 44.862 4.49316 44.6289C4.49316 44.3958 4.58576 44.1723 4.75059 44.0074C4.91542 43.8426 5.13897 43.75 5.37207 43.75H9.18379C9.41689 43.75 9.64044 43.8426 9.80527 44.0074C9.9701 44.1723 10.0627 44.3958 10.0627 44.6289C10.0627 44.862 9.9701 45.0856 9.80527 45.2504C9.64044 45.4152 9.41689 45.5078 9.18379 45.5078Z" fill="#CC0000"></path>
    <path d="M9.18379 35.4723H5.37207C4.77637 35.4723 4.20507 35.7089 3.78384 36.1302C3.36262 36.5514 3.12598 37.1227 3.12598 37.7184C3.12598 38.3141 3.36262 38.8854 3.78384 39.3066C4.20507 39.7278 4.77637 39.9645 5.37207 39.9645H9.18379C9.77949 39.9645 10.3508 39.7278 10.772 39.3066C11.1932 38.8854 11.4299 38.3141 11.4299 37.7184C11.4299 37.1227 11.1932 36.5514 10.772 36.1302C10.3508 35.7089 9.77949 35.4723 9.18379 35.4723ZM9.18379 38.5973H5.37207C5.13897 38.5973 4.91542 38.5047 4.75059 38.3399C4.58576 38.175 4.49316 37.9515 4.49316 37.7184C4.49316 37.4853 4.58576 37.2617 4.75059 37.0969C4.91542 36.9321 5.13897 36.8395 5.37207 36.8395H9.18379C9.41689 36.8395 9.64044 36.9321 9.80527 37.0969C9.9701 37.2617 10.0627 37.4853 10.0627 37.7184C10.0627 37.9515 9.9701 38.175 9.80527 38.3399C9.64044 38.5047 9.41689 38.5973 9.18379 38.5973Z" fill="#CC0000"></path>
    <path d="M9.18379 28.562H5.37207C4.77637 28.562 4.20507 28.7987 3.78384 29.2199C3.36262 29.6411 3.12598 30.2124 3.12598 30.8081C3.12598 31.4038 3.36262 31.9751 3.78384 32.3963C4.20507 32.8176 4.77637 33.0542 5.37207 33.0542H9.18379C9.77949 33.0542 10.3508 32.8176 10.772 32.3963C11.1932 31.9751 11.4299 31.4038 11.4299 30.8081C11.4299 30.2124 11.1932 29.6411 10.772 29.2199C10.3508 28.7987 9.77949 28.562 9.18379 28.562ZM9.18379 31.687H5.37207C5.13897 31.687 4.91542 31.5944 4.75059 31.4296C4.58576 31.2648 4.49316 31.0412 4.49316 30.8081C4.49316 30.575 4.58576 30.3514 4.75059 30.1866C4.91542 30.0218 5.13897 29.9292 5.37207 29.9292H9.18379C9.41689 29.9292 9.64044 30.0218 9.80527 30.1866C9.9701 30.3514 10.0627 30.575 10.0627 30.8081C10.0627 31.0412 9.9701 31.2648 9.80527 31.4296C9.64044 31.5944 9.41689 31.687 9.18379 31.687Z" fill="#CC0000"></path>
    <path d="M16.9961 23.8281H36.2312C36.4125 23.8281 36.5864 23.7561 36.7146 23.6279C36.8428 23.4997 36.9148 23.3258 36.9148 23.1445C36.9148 22.9632 36.8428 22.7894 36.7146 22.6612C36.5864 22.533 36.4125 22.4609 36.2312 22.4609H16.9961C16.8148 22.4609 16.6409 22.533 16.5127 22.6612C16.3845 22.7894 16.3125 22.9632 16.3125 23.1445C16.3125 23.3258 16.3845 23.4997 16.5127 23.6279C16.6409 23.7561 16.8148 23.8281 16.9961 23.8281Z" fill="#CC0000"></path>
    <path d="M10.7463 3.125H3.80957C3.62827 3.125 3.4544 3.19702 3.3262 3.32522C3.198 3.45342 3.12598 3.62729 3.12598 3.80859C3.12598 3.98989 3.198 4.16377 3.3262 4.29197C3.4544 4.42017 3.62827 4.49219 3.80957 4.49219H10.7463C10.9276 4.49219 11.1015 4.42017 11.2297 4.29197C11.3579 4.16377 11.4299 3.98989 11.4299 3.80859C11.4299 3.62729 11.3579 3.45342 11.2297 3.32522C11.1015 3.19702 10.9276 3.125 10.7463 3.125Z" fill="#CC0000"></path>
    <path d="M10.7463 6.42108H3.80957C3.62827 6.42108 3.4544 6.4931 3.3262 6.6213C3.198 6.7495 3.12598 6.92337 3.12598 7.10468C3.12598 7.28598 3.198 7.45985 3.3262 7.58805C3.4544 7.71625 3.62827 7.78827 3.80957 7.78827H10.7463C10.9276 7.78827 11.1015 7.71625 11.2297 7.58805C11.3579 7.45985 11.4299 7.28598 11.4299 7.10468C11.4299 6.92337 11.3579 6.7495 11.2297 6.6213C11.1015 6.4931 10.9276 6.42108 10.7463 6.42108Z" fill="#CC0000"></path>
    <path d="M10.7463 9.71796H3.80957C3.62827 9.71796 3.4544 9.78998 3.3262 9.91818C3.198 10.0464 3.12598 10.2202 3.12598 10.4016C3.12598 10.5829 3.198 10.7567 3.3262 10.8849C3.4544 11.0131 3.62827 11.0851 3.80957 11.0851H10.7463C10.9276 11.0851 11.1015 11.0131 11.2297 10.8849C11.3579 10.7567 11.4299 10.5829 11.4299 10.4016C11.4299 10.2202 11.3579 10.0464 11.2297 9.91818C11.1015 9.78998 10.9276 9.71796 10.7463 9.71796Z" fill="#CC0000"></path>
    <path d="M10.7463 13.0149H3.80957C3.62827 13.0149 3.4544 13.0869 3.3262 13.2151C3.198 13.3433 3.12598 13.5172 3.12598 13.6985C3.12598 13.8798 3.198 14.0537 3.3262 14.1819C3.4544 14.3101 3.62827 14.3821 3.80957 14.3821H10.7463C10.9276 14.3821 11.1015 14.3101 11.2297 14.1819C11.3579 14.0537 11.4299 13.8798 11.4299 13.6985C11.4299 13.5172 11.3579 13.3433 11.2297 13.2151C11.1015 13.0869 10.9276 13.0149 10.7463 13.0149Z" fill="#CC0000"></path>
    <path d="M40.04 24.6461V0.682422C40.0397 0.501325 39.9676 0.327751 39.8394 0.199805C39.7112 0.0718601 39.5375 -2.66102e-07 39.3564 0L0.684571 0C0.503474 -2.66102e-07 0.329776 0.0718601 0.201611 0.199805C0.0734463 0.327751 0.00128802 0.501325 0.000977567 0.682422V49.3152C0.000823505 49.4051 0.0183915 49.4941 0.0526763 49.5772C0.0869611 49.6603 0.13729 49.7358 0.200783 49.7994C0.264276 49.863 0.339687 49.9134 0.4227 49.9479C0.505714 49.9823 0.594702 50 0.684571 50H37.1139C37.1291 50 37.1439 50 37.1592 50C40.3137 50 43.3578 48.8388 45.711 46.7379C48.0641 44.637 49.5615 41.7434 49.9177 38.6091C50.2738 35.4747 49.4638 32.3189 47.642 29.7437C45.8202 27.1684 43.1141 25.3538 40.04 24.6461ZM1.36817 1.36719H13.1877V48.6328H1.36817V1.36719ZM14.5549 48.6328V1.36719H38.6729V24.4086C38.1705 24.3482 37.6651 24.3174 37.1592 24.3164C34.8832 24.3145 32.6482 24.9214 30.6857 26.0742H16.9963C16.815 26.0742 16.6411 26.1462 16.5129 26.2744C16.3847 26.4026 16.3127 26.5765 16.3127 26.7578C16.3127 26.9391 16.3847 27.113 16.5129 27.2412C16.6411 27.3694 16.815 27.4414 16.9963 27.4414H28.7771C28.0069 28.1069 27.3178 28.8608 26.724 29.6875H16.9975C16.8162 29.6875 16.6423 29.7595 16.5141 29.8877C16.3859 30.0159 16.3139 30.1898 16.3139 30.3711C16.3139 30.5524 16.3859 30.7263 16.5141 30.8545C16.6423 30.9827 16.8162 31.0547 16.9975 31.0547H25.8646C25.4761 31.7713 25.1571 32.5234 24.9119 33.3008H21.9041C21.7228 33.3008 21.5489 33.3728 21.4207 33.501C21.2925 33.6292 21.2205 33.8031 21.2205 33.9844C21.2205 34.1657 21.2925 34.3396 21.4207 34.4677C21.5489 34.5959 21.7228 34.668 21.9041 34.668H24.5627C24.0788 37.1079 24.3163 39.6359 25.2463 41.943H22.5354C22.3541 41.943 22.1802 42.015 22.052 42.1432C21.9238 42.2714 21.8518 42.4453 21.8518 42.6266C21.8518 42.8079 21.9238 42.9817 22.052 43.1099C22.1802 43.2381 22.3541 43.3102 22.5354 43.3102H25.89C26.3205 44.0931 26.831 44.8292 27.4135 45.5066H25.1354C24.9541 45.5066 24.7802 45.5787 24.652 45.7069C24.5238 45.8351 24.4518 46.0089 24.4518 46.1902C24.4518 46.3715 24.5238 46.5454 24.652 46.6736C24.7802 46.8018 24.9541 46.8738 25.1354 46.8738H28.6338C28.6767 46.8735 28.7194 46.8692 28.7615 46.8609C29.5652 47.5579 30.4522 48.1527 31.4021 48.6316L14.5549 48.6328ZM37.1592 48.6328C34.8897 48.6328 32.6712 47.9598 30.7842 46.699C28.8972 45.4381 27.4265 43.6461 26.558 41.5493C25.6895 39.4526 25.4623 37.1455 25.9051 34.9196C26.3478 32.6938 27.4407 30.6492 29.0454 29.0444C30.6502 27.4397 32.6947 26.3468 34.9206 25.9041C37.1465 25.4613 39.4536 25.6886 41.5503 26.557C43.647 27.4255 45.4391 28.8963 46.7 30.7833C47.9608 32.6702 48.6338 34.8887 48.6338 37.1582C48.6303 40.2004 47.4202 43.117 45.2691 45.2681C43.1179 47.4192 40.2014 48.6293 37.1592 48.6328Z" fill="#CC0000"></path>
    <path d="M42.9627 32.5368L35.1698 40.3298L31.3565 36.5161C31.293 36.4526 31.2176 36.4022 31.1347 36.3679C31.0518 36.3335 30.9629 36.3158 30.8731 36.3158C30.7833 36.3158 30.6944 36.3335 30.6115 36.3679C30.5285 36.4022 30.4532 36.4526 30.3897 36.5161C30.3262 36.5796 30.2758 36.6549 30.2415 36.7379C30.2071 36.8208 30.1895 36.9097 30.1895 36.9995C30.1895 37.0892 30.2071 37.1781 30.2415 37.2611C30.2758 37.344 30.3262 37.4194 30.3897 37.4829L34.6866 41.7798C34.75 41.8433 34.8254 41.8937 34.9083 41.9281C34.9913 41.9625 35.0802 41.9802 35.17 41.9802C35.2597 41.9802 35.3487 41.9625 35.4316 41.9281C35.5146 41.8937 35.5899 41.8433 35.6534 41.7798L43.9295 33.5036C44.0577 33.3754 44.1298 33.2015 44.1298 33.0202C44.1298 32.8389 44.0577 32.665 43.9295 32.5368C43.8013 32.4086 43.6274 32.3365 43.4461 32.3365C43.2648 32.3365 43.0909 32.4086 42.9627 32.5368Z" fill="#CC0000"></path>
  </g>
  <defs>
    <clipPath id="clip0_629_27320">
      <rect width="50" height="50" fill="white" transform="translate(0.000976562)"></rect>
    </clipPath>
  </defs>
</svg>
