<?xml version="1.0" encoding="UTF-8"?>
<svg xmlns="http://www.w3.org/2000/svg" width="50" height="50" viewBox="0 0 50 50" fill="none">
  <g clip-path="url(#clip0_629_27281)">
    <path d="M40.4316 14.5264C40.9709 14.5264 41.4082 14.0892 41.4082 13.5498V2.92969C41.4082 1.31426 40.0939 0 38.4785 0H2.93164C1.31621 0 0.00195312 1.31426 0.00195312 2.92969V47.0703C0.00195312 48.6857 1.31621 50 2.93164 50H38.4785C40.0939 50 41.4082 48.6857 41.4082 47.0703V39.8758C41.4082 39.3364 40.9709 38.8992 40.4316 38.8992C39.8924 38.8992 39.4551 39.3364 39.4551 39.8758V47.0703C39.4551 47.6088 39.017 48.0469 38.4785 48.0469H2.93164C2.39316 48.0469 1.95508 47.6088 1.95508 47.0703V2.92969C1.95508 2.39121 2.39316 1.95312 2.93164 1.95312H38.4785C39.017 1.95312 39.4551 2.39121 39.4551 2.92969V13.5498C39.4551 14.0892 39.8924 14.5264 40.4316 14.5264Z" fill="#CC0000"></path>
    <path d="M20.7051 5.27344C15.7511 5.27344 11.7207 9.30381 11.7207 14.2578C11.7207 16.8278 12.8057 19.1489 14.5412 20.788C14.5737 20.8228 14.6083 20.8557 14.6461 20.8856C16.2448 22.3484 18.3725 23.2421 20.705 23.2421C23.0375 23.2421 25.1651 22.3483 26.7639 20.8856C26.8017 20.8557 26.8362 20.8227 26.8687 20.788C28.6045 19.1489 29.6894 16.8278 29.6894 14.2578C29.6894 9.30381 25.6591 5.27344 20.7051 5.27344ZM20.7051 21.2891C19.1104 21.2891 17.6388 20.7547 16.4579 19.8566C17.3162 18.3347 18.9179 17.3828 20.7051 17.3828C22.4923 17.3828 24.0939 18.3347 24.9522 19.8566C23.7713 20.7547 22.2997 21.2891 20.7051 21.2891ZM19.1426 13.8672V13.2324C19.1426 12.3709 19.8436 11.6699 20.7051 11.6699C21.5666 11.6699 22.2676 12.3709 22.2676 13.2324V13.8672C22.2676 14.7287 21.5666 15.4297 20.7051 15.4297C19.8436 15.4297 19.1426 14.7287 19.1426 13.8672ZM26.3633 18.4261C25.6431 17.3579 24.6449 16.5271 23.486 16.0143C23.946 15.4198 24.2207 14.6752 24.2207 13.8672V13.2324C24.2207 11.2938 22.6436 9.7168 20.7051 9.7168C18.7665 9.7168 17.1895 11.2938 17.1895 13.2324V13.8672C17.1895 14.6752 17.4642 15.4198 17.9241 16.0143C16.7652 16.5271 15.7671 17.3579 15.0469 18.4261C14.1847 17.2588 13.6738 15.8171 13.6738 14.2578C13.6738 10.3808 16.828 7.22656 20.7051 7.22656C24.5821 7.22656 27.7363 10.3808 27.7363 14.2578C27.7363 15.8171 27.2255 17.2588 26.3633 18.4261Z" fill="#CC0000"></path>
    <path d="M25.9785 42.7734H20.7051C20.1658 42.7734 19.7285 43.2106 19.7285 43.75C19.7285 44.2894 20.1658 44.7266 20.7051 44.7266H25.9785C26.5178 44.7266 26.9551 44.2894 26.9551 43.75C26.9551 43.2106 26.5178 42.7734 25.9785 42.7734Z" fill="#CC0000"></path>
    <path d="M25.9785 37.3047H12.1113C11.5721 37.3047 11.1348 37.7419 11.1348 38.2812C11.1348 38.8206 11.5721 39.2578 12.1113 39.2578H25.9785C26.5178 39.2578 26.9551 38.8206 26.9551 38.2812C26.9551 37.7419 26.5178 37.3047 25.9785 37.3047Z" fill="#CC0000"></path>
    <path d="M25.9785 31.8359H12.1113C11.5721 31.8359 11.1348 32.2731 11.1348 32.8125C11.1348 33.3519 11.5721 33.7891 12.1113 33.7891H25.9785C26.5178 33.7891 26.9551 33.3519 26.9551 32.8125C26.9551 32.2731 26.5178 31.8359 25.9785 31.8359Z" fill="#CC0000"></path>
    <path d="M8.63076 26.6533C8.44922 26.4717 8.19727 26.3672 7.93945 26.3672C7.68252 26.3672 7.43057 26.4717 7.24902 26.6533C7.06738 26.835 6.96289 27.0869 6.96289 27.3438C6.96289 27.6006 7.06729 27.8525 7.24902 28.0342C7.43164 28.2158 7.68252 28.3203 7.93945 28.3203C8.19727 28.3203 8.44824 28.2158 8.63076 28.0342C8.8124 27.8525 8.91699 27.6006 8.91699 27.3438C8.91699 27.0869 8.8125 26.835 8.63076 26.6533Z" fill="#CC0000"></path>
    <path d="M8.63076 32.1221C8.44824 31.9404 8.19727 31.8359 7.93945 31.8359C7.68252 31.8359 7.43164 31.9404 7.24902 32.1221C7.06738 32.3037 6.96289 32.5557 6.96289 32.8125C6.96289 33.0693 7.06729 33.3213 7.24902 33.5029C7.43164 33.6846 7.68252 33.7891 7.93945 33.7891C8.19727 33.7891 8.44824 33.6846 8.63076 33.5029C8.8124 33.3213 8.91699 33.0693 8.91699 32.8125C8.91699 32.5557 8.8125 32.3037 8.63076 32.1221Z" fill="#CC0000"></path>
    <path d="M8.63076 37.5908C8.44824 37.4092 8.19727 37.3047 7.93945 37.3047C7.68252 37.3047 7.43164 37.4092 7.24902 37.5908C7.06738 37.7725 6.96289 38.0244 6.96289 38.2812C6.96289 38.5381 7.06729 38.79 7.24902 38.9717C7.43057 39.1533 7.68252 39.2578 7.93945 39.2578C8.19727 39.2578 8.44922 39.1533 8.63076 38.9717C8.8124 38.79 8.91699 38.5381 8.91699 38.2812C8.91699 38.0244 8.8125 37.7725 8.63076 37.5908Z" fill="#CC0000"></path>
    <path d="M25.9785 26.3672H12.1113C11.5721 26.3672 11.1348 26.8044 11.1348 27.3438C11.1348 27.8831 11.5721 28.3203 12.1113 28.3203H25.9785C26.5178 28.3203 26.9551 27.8831 26.9551 27.3438C26.9551 26.8044 26.5178 26.3672 25.9785 26.3672Z" fill="#CC0000"></path>
    <path d="M47.9505 12.7265C47.0017 12.1788 45.8965 12.0333 44.8381 12.3168C43.7799 12.6004 42.8953 13.2791 42.3476 14.2278L30.0584 35.5133C29.9911 35.63 29.9485 35.7594 29.9336 35.8932L29.0685 43.6417C29.0256 44.0272 29.2148 44.4017 29.5508 44.5958C29.7024 44.6833 29.8709 44.7266 30.0389 44.7266C30.2432 44.7266 30.4468 44.6627 30.6181 44.5364L36.8959 39.913C37.0044 39.8331 37.0952 39.7316 37.1625 39.6149L49.4516 18.3295C50.5825 16.3709 49.9091 13.8574 47.9505 12.7265ZM31.2572 41.64L31.709 37.5939L34.5353 39.2258L31.2572 41.64ZM35.9594 37.7926L32.2382 35.6441L42.1 18.5631L45.8212 20.7115L35.9594 37.7926ZM47.7602 17.3528L46.7976 19.0201L43.0764 16.8717L44.039 15.2044C44.326 14.7074 44.7892 14.3519 45.3435 14.2034C45.898 14.0548 46.4769 14.1311 46.9738 14.418C47.4708 14.705 47.8262 15.1682 47.9748 15.7225C48.1233 16.2768 48.0471 16.8558 47.7602 17.3528Z" fill="#CC0000"></path>
  </g>
  <defs>
    <clipPath id="clip0_629_27281">
      <rect width="50" height="50" fill="white" transform="translate(0.000976562)"></rect>
    </clipPath>
  </defs>
</svg>
